<svg width="20" height="25" viewBox="0 0 20 25" xmlns="http://www.w3.org/2000/svg">
<path d="M6.02344 8.23794C6.02344 6.51534 7.41988 5.1189 9.14249 5.1189H16.3806C18.1032 5.1189 19.4996 6.51534 19.4996 8.23794V20.9046C19.4996 22.6272 18.1032 24.0237 16.3806 24.0237H9.14248C7.41988 24.0237 6.02344 22.6272 6.02344 20.9046V8.23794Z" stroke="currentColor" fill="none"/>
<path d="M13.6667 3.71429V3.71429C13.6667 2.21523 12.4514 1 10.9524 1H4.61905C2.6203 1 1 2.6203 1 4.61904V17.2857C1 19.2845 2.6203 20.9048 4.61905 20.9048V20.9048" stroke="currentColor" fill="none"/>
<path d="M11.9361 15.2578V15.2578C11.1981 14.8142 10.9594 13.8562 11.403 13.1182L12.4741 11.3364C12.9177 10.5983 13.8757 10.3596 14.6137 10.8033V10.8033C15.3518 11.2469 15.5904 12.2049 15.1468 12.9429V12.9429" stroke="currentColor" stroke-linecap="round" fill="none"/>
<path d="M13.0131 13.4746V13.4746C13.7512 13.9182 13.9898 14.8762 13.5462 15.6142L12.4752 17.3961C12.0315 18.1341 11.0736 18.3728 10.3355 17.9291V17.9291C9.59746 17.4855 9.3588 16.5276 9.80243 15.7895V15.7895" stroke="currentColor" stroke-linecap="round" fill="none"/>
</svg>
