<svg width="25" height="25" viewBox="0 0 25 25" xmlns="http://www.w3.org/2000/svg">
<path d="M12.4973 2.62114C15.7165 2.62114 16.0962 2.63225 17.3687 2.69152C18.1327 2.70096 18.8895 2.84129 19.6061 3.10642C20.1259 3.30615 20.5979 3.6128 20.9916 4.00653C21.3854 4.40026 21.692 4.87229 21.8918 5.39205C22.1569 6.10869 22.2972 6.86548 22.3067 7.62953C22.3659 8.90201 22.377 9.28171 22.377 12.499C22.377 15.7163 22.3659 16.0979 22.3067 17.3703C22.2972 18.1344 22.1569 18.8912 21.8918 19.6078C21.692 20.1276 21.3854 20.5996 20.9916 20.9933C20.5979 21.3871 20.1259 21.6937 19.6061 21.8935C18.8895 22.1586 18.1327 22.2989 17.3687 22.3084C16.098 22.3676 15.7165 22.3787 12.4973 22.3787C9.27816 22.3787 8.89845 22.3676 7.62783 22.3084C6.86378 22.2989 6.107 22.1586 5.39036 21.8935C4.8706 21.6937 4.39857 21.3871 4.00484 20.9933C3.61111 20.5996 3.30446 20.1276 3.10473 19.6078C2.8396 18.8912 2.69928 18.1344 2.68984 17.3703C2.63057 16.0979 2.61945 15.7182 2.61945 12.499C2.61945 9.27986 2.63057 8.90201 2.68984 7.62953C2.69928 6.86548 2.8396 6.10869 3.10473 5.39205C3.30446 4.87229 3.61111 4.40026 4.00484 4.00653C4.39857 3.6128 4.8706 3.30615 5.39036 3.10642C6.107 2.84129 6.86378 2.70096 7.62783 2.69152C8.9003 2.63225 9.28002 2.62114 12.4973 2.62114ZM12.4973 0.448486C9.2263 0.448486 8.81512 0.463304 7.52968 0.522575C6.53035 0.540644 5.54135 0.728545 4.60502 1.07824C3.80557 1.3872 3.07953 1.85986 2.47348 2.46591C1.86744 3.07196 1.39477 3.798 1.08581 4.59745C0.736118 5.53378 0.548217 6.52277 0.530148 7.5221C0.470877 8.80754 0.456055 9.21873 0.456055 12.4897C0.456055 15.7608 0.470877 16.1738 0.530148 17.4592C0.548217 18.4586 0.736118 19.4476 1.08581 20.3839C1.39477 21.1834 1.86744 21.9094 2.47348 22.5154C3.07953 23.1215 3.80557 23.5942 4.60502 23.9031C5.54135 24.2528 6.53035 24.4407 7.52968 24.4588C8.81512 24.518 9.2263 24.5329 12.4973 24.5329C15.7683 24.5329 16.1814 24.518 17.4668 24.4588C18.4661 24.4407 19.4551 24.2528 20.3915 23.9031C21.1909 23.5942 21.917 23.1215 22.523 22.5154C23.1291 21.9094 23.6017 21.1834 23.9107 20.3839C24.2604 19.4476 24.4483 18.4586 24.4663 17.4592C24.5256 16.1738 24.5404 15.7626 24.5404 12.4897C24.5404 9.21688 24.5256 8.80754 24.4663 7.5221C24.4483 6.52277 24.2604 5.53378 23.9107 4.59745C23.6017 3.798 23.1291 3.07196 22.523 2.46591C21.917 1.85986 21.1909 1.3872 20.3915 1.07824C19.4551 0.728545 18.4661 0.540644 17.4668 0.522575C16.1814 0.463304 15.7702 0.448486 12.4973 0.448486Z" fill="currentColor"/>
<path d="M12.4978 6.31274C11.2738 6.31274 10.0773 6.67573 9.05963 7.35578C8.04194 8.03584 7.24877 9.00242 6.78045 10.1333C6.31213 11.2641 6.18969 12.5085 6.42861 13.709C6.66754 14.9094 7.25711 16.012 8.12274 16.8774C8.98837 17.7428 10.0912 18.332 11.2917 18.5706C12.4922 18.8091 13.7365 18.6863 14.8673 18.2177C15.998 17.749 16.9643 16.9556 17.6441 15.9377C18.3238 14.9198 18.6865 13.7231 18.6861 12.4991C18.6861 11.6866 18.526 10.882 18.215 10.1313C17.904 9.3806 17.4481 8.69853 16.8735 8.12405C16.2988 7.54956 15.6166 7.09391 14.8658 6.78312C14.1151 6.47234 13.3104 6.3125 12.4978 6.31274ZM12.4978 16.5166C11.7033 16.5166 10.9265 16.281 10.2659 15.8395C9.60519 15.3981 9.09026 14.7707 8.78619 14.0366C8.48212 13.3025 8.40256 12.4947 8.55758 11.7154C8.71259 10.9361 9.09521 10.2202 9.65706 9.65838C10.2189 9.09652 10.9348 8.7139 11.7141 8.55888C12.4934 8.40387 13.3012 8.48343 14.0353 8.7875C14.7693 9.09157 15.3968 9.6065 15.8382 10.2672C16.2797 10.9278 16.5153 11.7046 16.5153 12.4991C16.5153 13.5646 16.092 14.5865 15.3386 15.3399C14.5852 16.0933 13.5633 16.5166 12.4978 16.5166Z" fill="currentColor"/>
<path d="M18.9309 7.51474C19.7299 7.51474 20.3775 6.86709 20.3775 6.06816C20.3775 5.26924 19.7299 4.62158 18.9309 4.62158C18.132 4.62158 17.4844 5.26924 17.4844 6.06816C17.4844 6.86709 18.132 7.51474 18.9309 7.51474Z" fill="currentColor"/>
</svg>
