<svg width="24" height="24" viewBox="0 0 24 24" xmlns="http://www.w3.org/2000/svg">
<path fill-rule="evenodd" clip-rule="evenodd" d="M18.4833 19.79L18.484 19.7883L18.5014 19.7448L21.5002 4.62568V4.57657C21.5002 4.19987 21.361 3.87101 21.0581 3.67375C20.793 3.50109 20.4882 3.48879 20.2745 3.50501C20.0485 3.52217 19.8354 3.57858 19.6879 3.62554C19.612 3.6497 19.5484 3.67298 19.503 3.69059C19.4802 3.69943 19.4617 3.70692 19.4483 3.71251L19.4351 3.71807L2.71526 10.277L2.71066 10.2787C2.70163 10.2819 2.68969 10.2864 2.67526 10.292C2.64651 10.3032 2.60737 10.3192 2.56139 10.3401C2.47111 10.381 2.34637 10.4441 2.21987 10.5307C2.00502 10.6779 1.5959 11.0262 1.66499 11.5784C1.72221 12.0358 2.03751 12.3263 2.25008 12.4767C2.36403 12.5574 2.47304 12.6155 2.55287 12.6535C2.59332 12.6728 2.62767 12.6875 2.65326 12.6979C2.66609 12.7032 2.67682 12.7073 2.68512 12.7105L2.69574 12.7144L2.70253 12.717L5.62777 13.7018C5.6179 13.8853 5.6361 14.0724 5.68478 14.2571L7.15006 19.8155C7.3238 20.4745 7.92002 20.9336 8.60159 20.9331C9.21252 20.9327 9.75435 20.5631 9.98454 20.0117L12.2722 17.5656L16.2012 20.5778L16.2571 20.6022C16.614 20.758 16.9475 20.8073 17.2525 20.7657C17.557 20.7241 17.7989 20.5964 17.9807 20.451C18.1595 20.3079 18.2821 20.1464 18.3592 20.0248C18.3984 19.963 18.4276 19.9087 18.4478 19.8679C18.458 19.8473 18.466 19.83 18.472 19.8164L18.4796 19.799L18.4822 19.7926L18.4833 19.79ZM7.13518 13.8747C7.10187 13.7484 7.15416 13.615 7.26444 13.545L17.1865 7.24407C17.1865 7.24407 17.77 6.88978 17.7492 7.24407C17.7492 7.24407 17.8533 7.30664 17.5406 7.59837C17.244 7.87544 10.4689 14.4165 9.7834 15.0784C9.74383 15.1166 9.72021 15.1604 9.70627 15.2136L8.60046 19.4331L7.13518 13.8747Z" fill="currentColor"/>
</svg>
