<svg width="27" height="27" viewBox="0 0 27 27" xmlns="http://www.w3.org/2000/svg">
<path d="M9 7.875C9 10.3603 11.0147 12.375 13.5 12.375C15.9853 12.375 18 10.3603 18 7.875C18 5.38972 15.9853 3.375 13.5 3.375" stroke="currentColor" stroke-linecap="round" fill="none"/>
<path d="M5.625 19.0515C5.625 18.0836 6.23346 17.2202 7.14498 16.8947V16.8947C11.2545 15.4269 15.7455 15.4269 19.855 16.8947V16.8947C20.7665 17.2202 21.375 18.0836 21.375 19.0515V20.5315C21.375 21.8673 20.1918 22.8935 18.8694 22.7046L17.7957 22.5512C14.9464 22.1441 12.0536 22.1441 9.20433 22.5512L8.13061 22.7046C6.80817 22.8935 5.625 21.8673 5.625 20.5315V19.0515Z" stroke="currentColor" fill="none"/>
</svg>
