<svg width="25" height="25" viewBox="0 0 25 25" xmlns="http://www.w3.org/2000/svg">
<path fill-rule="evenodd" clip-rule="evenodd" d="M12.8252 0.465332C10.7496 0.466253 8.71142 1.01826 6.91901 2.06495C5.1266 3.11164 3.64424 4.61547 2.62343 6.42275C1.60263 8.23002 1.07998 10.2759 1.10891 12.3514C1.13784 14.4268 1.7173 16.4574 2.78809 18.2355L0.672852 24.533L7.15561 22.4567C8.72124 23.3209 10.4639 23.8154 12.2501 23.9024C14.0363 23.9893 15.8187 23.6664 17.4609 22.9583C19.1031 22.2501 20.5614 21.1756 21.7243 19.817C22.8872 18.4584 23.7238 16.8517 24.17 15.12C24.6162 13.3882 24.6602 11.5773 24.2987 9.8259C23.9372 8.0745 23.1796 6.42903 22.0842 5.01552C20.9887 3.602 19.5843 2.45791 17.9784 1.67083C16.3726 0.883753 14.608 0.474551 12.8197 0.47458L12.8252 0.465332ZM12.8252 21.9399C10.9151 21.9437 9.04644 21.3831 7.45381 20.3285L3.70493 21.5269L4.92184 17.9058C3.63744 16.1316 2.98758 13.9768 3.07692 11.7883C3.16626 9.59982 3.9896 7.50514 5.41434 5.84155C6.83908 4.17797 8.78228 3.04234 10.931 2.61756C13.0797 2.19279 15.3088 2.50359 17.2594 3.49992C19.21 4.49625 20.7684 6.1201 21.6838 8.10995C22.5991 10.0998 22.8181 12.3398 22.3054 14.4693C21.7927 16.5987 20.5782 18.4936 18.8575 19.8488C17.1367 21.204 15.01 21.9406 12.8197 21.9399H12.8252ZM18.3208 14.8478C18.0263 14.6867 16.5834 13.9087 16.313 13.7976C16.0425 13.6865 15.8444 13.6309 15.6351 13.9235C15.4258 14.2162 14.8256 14.8663 14.6441 15.0589C14.4626 15.2516 14.2866 15.2701 13.9921 15.1089C13.1227 14.7255 12.3272 14.1926 11.6417 13.5346C11.0101 12.906 10.4757 12.1869 10.0562 11.4008C9.89133 11.0952 10.0562 10.9396 10.2099 10.797C10.3636 10.6544 10.5229 10.458 10.6785 10.2895C10.8075 10.1429 10.9142 9.97814 10.9953 9.80051C11.0384 9.71988 11.0609 9.62985 11.0609 9.53841C11.0609 9.44697 11.0384 9.35694 10.9953 9.27632C10.9249 9.12443 10.3822 7.62971 10.1543 7.02218C9.92653 6.41466 9.67648 6.50355 9.50052 6.49614C9.32456 6.48873 9.13007 6.4591 8.92818 6.45169C8.77657 6.44929 8.62612 6.47851 8.48643 6.53751C8.34675 6.59651 8.2209 6.68398 8.11691 6.79434C7.76665 7.10208 7.4843 7.47941 7.28787 7.90226C7.09143 8.32511 6.9852 8.78422 6.97594 9.25038C6.92223 10.7322 7.9391 12.1843 8.08727 12.3992C8.23545 12.614 10.0321 15.7943 13.0271 17.1075C16.0222 18.4207 16.0407 18.0188 16.5889 17.9892C17.1372 17.9595 18.3875 17.3316 18.6616 16.6426C18.9357 15.9536 18.9598 15.346 18.8894 15.2275C18.819 15.1089 18.6134 15.0089 18.3208 14.8478Z" fill="currentColor"/>
</svg>
