<svg width="54" height="53" viewBox="0 0 54 53" fill="none" xmlns="http://www.w3.org/2000/svg">
<path d="M32.8863 4.12304C29.706 0.705847 24.294 0.705849 21.1137 4.12304C20.0119 5.30687 18.4091 5.89025 16.8042 5.69158C12.1714 5.11811 8.02551 8.59691 7.78579 13.2589C7.70275 14.8739 6.8499 16.3511 5.49274 17.2306C1.57521 19.7692 0.635419 25.099 3.44844 28.8243C4.42297 30.1149 4.71916 31.7947 4.24481 33.3408C2.87558 37.8036 5.58161 42.4906 10.1311 43.5362C11.7072 43.8984 13.0139 44.9948 13.6443 46.4841C15.464 50.7829 20.5497 52.6339 24.7069 50.5106C26.1472 49.7749 27.8528 49.7749 29.2931 50.5106C33.4503 52.6339 38.536 50.7829 40.3557 46.4841C40.9861 44.9948 42.2928 43.8984 43.8689 43.5362C48.4184 42.4906 51.1244 37.8036 49.7552 33.3408C49.2808 31.7947 49.577 30.1149 50.5516 28.8243C53.3646 25.099 52.4248 19.7692 48.5073 17.2306C47.1501 16.3511 46.2973 14.8739 46.2142 13.2589C45.9745 8.59691 41.8286 5.11811 37.1959 5.69158C35.5909 5.89025 33.9881 5.30687 32.8863 4.12304Z" fill="#FBFAEC" stroke="#A92E35" stroke-width="3"/>
</svg>
