<svg width="189" height="150" viewBox="0 0 189 150" fill="none" xmlns="http://www.w3.org/2000/svg">
<path d="M6.38725 130.412C6.21896 130.517 5.99668 130.466 5.89298 130.297C-1.10537 118.861 -0.908916 103.421 6.4602 86.5595C13.8952 69.5473 28.1718 52.1406 46.8573 37.3053C65.5429 22.4701 87.4813 11.1242 108.935 5.20077C130.388 -0.72263 150.028 -0.856998 164.51 4.82055C178.992 10.4981 187.418 21.6363 188.354 36.3373C189.289 51.0383 182.676 68.3926 169.641 85.4431C156.606 102.494 137.955 118.185 116.867 129.845C95.9374 141.417 73.8919 148.306 54.432 149.362C54.2381 149.373 54.1101 149.166 54.2032 148.996C54.2447 148.92 54.322 148.871 54.4083 148.867C73.8076 147.873 95.8206 141.02 116.714 129.468C137.657 117.889 156.179 102.305 169.124 85.3718C182.07 68.4386 188.637 51.2038 187.708 36.604C186.779 22.0042 178.411 10.9427 164.029 5.30423C149.647 -0.334236 130.141 -0.200786 108.836 5.68183C87.5304 11.5645 65.743 22.8323 47.1861 37.5654C28.6292 52.2985 14.4509 69.5854 7.06705 86.4805C-0.250894 103.225 -0.446419 118.557 6.50245 129.915C6.60612 130.084 6.55555 130.306 6.38725 130.412Z" fill="#8C3849"/>
</svg>
