<svg width="256" height="256" viewBox="0 0 256 256" fill="none" xmlns="http://www.w3.org/2000/svg">
<path d="M113.064 5.12739C121.927 -1.47539 134.073 -1.47539 142.936 5.12739L149.958 10.3588C155.078 14.1733 161.463 15.8842 167.805 15.1408L176.501 14.1213C187.478 12.8344 197.997 18.9076 202.371 29.0572L205.837 37.0986C208.363 42.9621 213.038 47.6365 218.901 50.1634L226.943 53.6288C237.092 58.0027 243.166 68.5219 241.879 79.4986L240.859 88.1954C240.116 94.5367 241.827 100.922 245.641 106.042L250.873 113.064C257.475 121.927 257.475 134.073 250.873 142.936L245.641 149.958C241.827 155.078 240.116 161.463 240.859 167.805L241.879 176.501C243.166 187.478 237.092 197.997 226.943 202.371L218.901 205.837C213.038 208.363 208.363 213.038 205.837 218.901L202.371 226.943C197.997 237.092 187.478 243.166 176.501 241.879L167.805 240.859C161.463 240.116 155.078 241.827 149.958 245.641L142.936 250.873C134.073 257.475 121.927 257.475 113.064 250.873L106.042 245.641C100.922 241.827 94.5367 240.116 88.1954 240.859L79.4986 241.879C68.5219 243.166 58.0027 237.092 53.6288 226.943L50.1634 218.901C47.6365 213.038 42.9621 208.363 37.0986 205.837L29.0572 202.371C18.9077 197.997 12.8344 187.478 14.1213 176.501L15.1408 167.805C15.8842 161.463 14.1733 155.078 10.3588 149.958L5.12739 142.936C-1.47539 134.073 -1.47539 121.927 5.12739 113.064L10.3588 106.042C14.1733 100.922 15.8842 94.5367 15.1408 88.1954L14.1213 79.4986C12.8344 68.5219 18.9076 58.0027 29.0572 53.6288L37.0986 50.1634C42.9621 47.6365 47.6365 42.9621 50.1634 37.0986L53.6288 29.0572C58.0027 18.9077 68.5219 12.8344 79.4986 14.1213L88.1954 15.1408C94.5367 15.8842 100.922 14.1733 106.042 10.3588L113.064 5.12739Z" fill="#823949" fill-opacity="0.51"/>
</svg>
