<svg width="116" height="12" viewBox="0 0 116 12" fill="none" xmlns="http://www.w3.org/2000/svg">
<path d="M21.7273 6.15152C21.7273 4.78525 21.1813 3.47494 20.2096 2.50884C19.2378 1.54275 17.9198 1 16.5455 1C15.1712 1 13.8531 1.54275 12.8814 2.50884C11.9096 3.47494 11.3636 4.78525 11.3636 6.15151M42.4545 6.15152C42.4545 4.78525 41.9086 3.47494 40.9368 2.50884C39.965 1.54275 38.647 1 37.2727 1C35.8984 1 34.5804 1.54275 33.6086 2.50884C32.6369 3.47494 32.0909 4.78525 32.0909 6.15151M63.1818 6.15152C63.1818 4.78525 62.6359 3.47494 61.6641 2.50884C60.6923 1.54275 59.3743 1 58 1C56.6257 1 55.3077 1.54275 54.3359 2.50884C53.3641 3.47494 52.8182 4.78525 52.8182 6.15151M83.9091 6.15152C83.9091 4.78525 83.3632 3.47494 82.3914 2.50884C81.4196 1.54275 80.1016 1 78.7273 1C77.353 1 76.035 1.54275 75.0632 2.50884C74.0914 3.47494 73.5455 4.78525 73.5455 6.15151M104.636 6.15152C104.636 4.78525 104.09 3.47494 103.119 2.50884C102.147 1.54275 100.829 1 99.4546 1C98.0802 1 96.7622 1.54275 95.7905 2.50884C94.8187 3.47494 94.2727 4.78525 94.2727 6.15151M32.0909 5.84848C32.0909 7.21475 31.545 8.52506 30.5732 9.49116C29.6014 10.4573 28.2834 11 26.9091 11C25.5348 11 24.2168 10.4573 23.245 9.49116C22.2732 8.52506 21.7273 7.21475 21.7273 5.84849M52.8182 5.84848C52.8182 7.21475 52.2722 8.52506 51.3005 9.49116C50.3287 10.4573 49.0107 11 47.6364 11C46.2621 11 44.944 10.4573 43.9723 9.49116C43.0005 8.52506 42.4545 7.21475 42.4545 5.84849M73.5455 5.84848C73.5455 7.21475 72.9995 8.52506 72.0277 9.49116C71.056 10.4573 69.7379 11 68.3636 11C66.9893 11 65.6713 10.4573 64.6995 9.49116C63.7278 8.52506 63.1818 7.21475 63.1818 5.84849M94.2727 5.84848C94.2727 7.21475 93.7268 8.52506 92.755 9.49116C91.7832 10.4573 90.4652 11 89.0909 11C87.7166 11 86.3986 10.4573 85.4268 9.49116C84.455 8.52506 83.9091 7.21475 83.9091 5.84849M115 5.84848C115 7.21475 114.454 8.52506 113.482 9.49116C112.511 10.4573 111.192 11 109.818 11C108.444 11 107.126 10.4573 106.154 9.49116C105.182 8.52506 104.636 7.21475 104.636 5.84849M11.3636 5.84848C11.3636 7.21475 10.8177 8.52506 9.84592 9.49116C8.87414 10.4573 7.55612 11 6.18182 11C4.80752 11 3.4895 10.4573 2.51772 9.49116C1.54594 8.52506 1 7.21475 1 5.84849" stroke="#C0C0C0" stroke-width="0.4"/>
</svg>
