<svg width="13" height="16" viewBox="0 0 13 16" fill="none" xmlns="http://www.w3.org/2000/svg">
<g clip-path="url(#clip0_227_14437)">
<path fill-rule="evenodd" clip-rule="evenodd" d="M12.8033 3.10947C13.2868 2.96601 12.7323 2.54046 12.5985 2.35832C12.3355 1.96492 12.0996 1.554 11.8925 1.12844C11.4444 0.296695 10.0114 0.307978 9.29575 0.74158C9.07976 0.872144 8.77833 1.03011 8.65099 1.19614C8.42049 1.51852 8.4898 1.97307 8.19482 2.28901C7.9337 1.81511 8.03363 0.97853 7.62582 0.649702C7.3086 0.611064 7.00198 0.510864 6.72316 0.354724C6.50555 0.219324 6.41851 0.0484619 6.19929 0.013C6.00946 -0.00475559 5.81811 0.00283325 5.63029 0.0355667C4.89848 0.10649 4.34076 0.403081 3.8314 0.694835C3.66565 0.778887 3.51826 0.895045 3.3978 1.03656C3.42682 1.18808 3.62508 1.21709 3.67182 1.40085C3.71857 1.58461 3.58962 1.72323 3.67182 1.90215C3.48323 2.60172 2.91101 2.91926 2.60152 3.49632C2.64988 3.58498 2.88038 3.49632 2.9239 3.5882C2.94808 4.04759 2.59024 4.23296 2.60152 4.61176C2.75465 4.74071 2.9239 4.58275 3.08509 4.52149C3.40747 4.39577 4.16668 4.17171 4.38429 4.38448C3.80561 4.38448 3.46228 4.6311 3.33655 5.0905C2.90778 4.99378 2.53866 5.2404 2.35651 5.38709C2.30493 4.04759 0.11113 4.52633 -9.11588e-05 5.54666C-0.108089 6.59118 1.46996 6.66371 2.05025 6.19143C1.98593 6.61774 2.04931 7.05355 2.23239 7.44387C2.16469 7.51963 1.98255 7.60506 1.89067 7.7179C1.45062 8.26917 1.07021 10.463 2.3275 10.2824C2.0712 11.1529 2.56445 12.3779 3.53481 12.0555C3.75081 11.9846 3.86848 11.709 4.03611 11.6235C4.07829 11.7931 4.15573 11.9518 4.26339 12.0894C3.44616 12.6568 3.63636 14.9908 4.94684 14.799C5.09191 14.7796 5.13704 14.691 5.31113 14.6636C5.43525 15.1069 5.91882 15.2938 6.49588 15.21C6.65707 15.6307 6.97945 15.995 7.542 15.8935C8.47852 15.721 8.78156 13.8125 8.02557 13.2741C8.18184 13.0618 8.29767 12.8224 8.3673 12.5681C9.07492 12.5681 9.76804 12.1813 9.84703 11.5655C9.90022 11.1577 9.70357 10.5758 9.39247 10.4275C9.44244 10.1212 9.41504 9.65218 9.48274 9.49422C9.68745 9.94555 10.0227 10.4614 10.6675 10.3824C11.4041 10.2905 11.8796 8.89781 11.2591 8.2869C11.0092 8.04028 10.6046 7.95001 10.121 7.96452C10.1439 7.84452 10.1515 7.72213 10.1436 7.60023C10.9415 8.12087 11.6395 7.32137 11.7378 6.57506C11.9812 6.60407 12.3487 6.72174 12.4889 6.52992C12.4236 6.04755 12.4705 5.55662 12.6259 5.09533C12.6791 5.03569 12.7742 5.01635 12.8081 4.93414C12.713 4.22329 12.9918 3.65107 12.8033 3.10947Z" fill="#210404"/>
<path fill-rule="evenodd" clip-rule="evenodd" d="M7.56627 1.12821C7.62752 1.52313 7.55499 1.93416 7.56627 2.35809C7.41873 2.3324 7.27367 2.29411 7.13267 2.24365C7.22294 2.1292 7.37123 2.07278 7.42926 1.92127C7.12622 1.9535 7.07303 2.23397 6.72325 2.21786C6.96664 1.99058 7.34222 1.89547 7.54209 1.62629C7.18038 1.75456 6.85324 1.96475 6.58623 2.24042C6.47824 2.22269 6.43955 2.27588 6.33639 2.26299C6.67489 1.96479 7.14234 1.78909 7.42926 1.44414C7.09658 1.60502 6.78344 1.80351 6.49597 2.03571C6.42021 2.09213 6.32511 2.23881 6.22194 2.17272C6.46212 1.7907 6.96342 1.6682 7.26968 1.35226C6.83286 1.45059 6.48307 1.81488 6.12523 2.0615C5.69808 1.75202 5.67873 0.913826 5.48047 0.449597C5.65346 0.420171 5.82946 0.412589 6.00434 0.427031C6.16553 0.462493 6.23645 0.644638 6.39119 0.723621C6.51048 0.783261 6.66844 0.754247 6.77805 0.791321C6.88766 0.828395 6.93924 0.917049 7.02951 0.952511C7.21488 1.00893 7.4341 0.967018 7.56627 1.12821ZM5.85765 1.46993C6.14877 1.33701 6.41785 1.16035 6.65555 0.946064C6.33318 1.01417 6.04831 1.20122 5.85765 1.46993ZM6.01884 1.60694C6.33184 1.45761 6.62261 1.26558 6.88282 1.03633C6.53867 1.1273 6.23431 1.32965 6.01723 1.61178L6.01884 1.60694ZM6.08654 1.81166C6.43005 1.65624 6.7519 1.45684 7.04402 1.21848C6.68008 1.33362 6.3505 1.53746 6.08493 1.81166H6.08654Z" fill="white"/>
<path fill-rule="evenodd" clip-rule="evenodd" d="M5.65299 1.51526C5.22768 1.22366 4.74712 1.02233 4.24097 0.923692C4.58088 0.722525 4.94937 0.57415 5.33384 0.483643C5.54016 0.731876 5.55789 1.16225 5.65299 1.51526Z" fill="white"/>
<path fill-rule="evenodd" clip-rule="evenodd" d="M10.3888 0.718994C10.2115 1.14776 10.0503 1.59265 9.84237 1.99401C9.35879 2.21806 9.1976 2.77417 8.52222 2.81286C8.82203 2.44534 8.56251 1.76673 8.79624 1.40083C8.8849 1.26221 9.19599 1.07845 9.38781 0.968839C9.69709 0.807748 10.0401 0.722133 10.3888 0.718994Z" fill="white"/>
<path fill-rule="evenodd" clip-rule="evenodd" d="M6.15421 2.28884C5.94949 2.32591 5.7335 2.50645 5.49332 2.51773C5.3144 2.52579 5.10002 2.39845 4.90176 2.38072C4.49989 2.35012 4.09609 2.40506 3.71701 2.54191C3.69605 2.41135 3.8782 2.24854 3.89915 2.04061C3.91205 1.94712 3.86691 1.84396 3.87659 1.71823C3.88787 1.57154 3.97814 1.43937 3.96685 1.35394C3.94751 1.19275 3.78954 1.13472 3.76214 1.03156C4.91788 1.00577 5.63195 1.61184 6.15421 2.28884Z" fill="white"/>
<path fill-rule="evenodd" clip-rule="evenodd" d="M11.7782 1.61202C12.0828 2.00533 12.2714 2.5163 12.6437 2.84029C12.5648 2.94829 12.468 3.17396 12.5986 3.29646C12.1826 3.1894 11.752 3.15074 11.3236 3.18202C10.84 3.21909 10.4032 3.55759 9.84226 3.34321C9.93897 3.56243 10.1388 3.61401 10.2759 3.79938C10.624 4.26844 10.5048 5.18561 10.6402 5.87067C10.4306 5.6579 9.90351 5.66112 9.50053 5.70948C9.4683 4.82616 9.57629 3.70105 9.09111 3.20297C9.46185 3.61723 9.36997 4.55536 9.31839 5.29845C9.32992 5.45943 9.32992 5.62103 9.31839 5.78202C9.25718 5.94501 9.15702 6.09055 9.02664 6.20595C8.7913 5.56119 8.61882 4.85195 8.00146 4.59404C8.00186 4.07151 8.07068 3.55128 8.20618 3.04662C8.64784 2.77904 9.25553 3.02727 9.6182 3.18202C9.56179 3.00471 9.23941 2.89349 8.9815 2.84029C9.69235 2.20843 10.3935 1.56528 11.7782 1.61202Z" fill="white"/>
<path fill-rule="evenodd" clip-rule="evenodd" d="M8.04345 3.01743C7.94401 3.31369 7.87541 3.61942 7.83874 3.92977C7.39063 4.51328 6.37352 4.64868 5.74326 4.97589C5.7207 4.75668 5.58207 4.65351 5.56112 4.42946C5.70941 3.8121 6.21555 3.55097 6.47345 3.04161C6.06726 3.40107 5.63204 3.73473 5.47085 4.33919C5.2468 4.30051 5.05337 4.12642 4.76484 4.22475C4.64072 4.10224 4.7052 3.85562 4.74227 3.63318C4.78902 3.3382 4.82125 3.04806 4.96955 2.9046C5.36447 2.52097 6.93446 2.17441 7.56632 2.63058C7.6985 2.78693 7.81133 2.96102 8.04345 3.01743ZM6.86031 3.66219C7.10049 3.64285 7.32615 3.41718 7.45188 3.20602C7.32785 3.23675 7.21139 3.29248 7.10967 3.36981C7.00794 3.44715 6.92309 3.54445 6.86031 3.65575V3.66219ZM6.97314 3.82338C7.08199 3.79693 7.18352 3.74642 7.27027 3.67557C7.35702 3.60472 7.42679 3.51532 7.47445 3.41396C7.36711 3.44126 7.26685 3.4912 7.18039 3.56042C7.09393 3.62965 7.02327 3.71656 6.97314 3.81532V3.82338Z" fill="white"/>
<path fill-rule="evenodd" clip-rule="evenodd" d="M5.24351 2.60796C4.40693 3.00126 3.82181 3.64764 3.1029 4.157C3.11579 3.97002 3.30922 3.47839 3.05615 3.33654C3.20767 3.09314 3.4414 2.93195 3.58002 2.67727C4.07326 2.55477 4.71964 2.44999 5.24351 2.60796Z" fill="white"/>
<path fill-rule="evenodd" clip-rule="evenodd" d="M4.78732 2.97241C4.7164 3.22065 4.64386 3.66553 4.56004 3.97502C4.07647 3.91538 3.65576 4.10074 3.23828 4.17973C3.79439 3.81544 4.20381 3.30769 4.78732 2.97241Z" fill="white"/>
<path fill-rule="evenodd" clip-rule="evenodd" d="M12.6438 3.51887C12.5675 3.86257 12.5447 4.21596 12.5761 4.56661C12.411 4.47613 12.2349 4.40732 12.0522 4.3619C11.6976 4.31354 11.2463 4.4167 10.9126 4.2942C10.5789 4.17169 10.4387 3.64943 10.0938 3.51887C10.9513 3.41571 11.8926 3.09172 12.6438 3.51887Z" fill="white"/>
<path fill-rule="evenodd" clip-rule="evenodd" d="M10.5256 4.08789C11.1317 4.65206 11.3429 5.60953 11.8152 6.29781C11.5331 6.33005 11.2591 6.15596 10.9286 6.1608C10.6095 5.66111 10.7368 4.70525 10.5256 4.08789ZM11.0946 5.93352C11.1166 5.9612 11.1481 5.97968 11.183 5.98535C11.2179 5.99101 11.2536 5.98345 11.2832 5.96415V5.87227C11.2542 5.84164 11.1849 5.8497 11.122 5.8497C11.122 5.88516 11.093 5.89161 11.0946 5.93352Z" fill="white"/>
<path fill-rule="evenodd" clip-rule="evenodd" d="M7.79365 4.11206C7.82266 4.31516 7.7324 4.59563 7.72595 4.84064C7.29557 5.42737 6.243 5.39191 5.65304 5.81907C5.63692 5.65788 5.76265 5.42899 5.74331 5.1743C6.31715 4.71491 7.31491 4.67461 7.79365 4.11206Z" fill="white"/>
<path fill-rule="evenodd" clip-rule="evenodd" d="M10.9609 4.42944C11.4445 4.50359 12.3262 4.38431 12.5728 4.77117C12.3278 5.16608 12.2198 5.78989 12.2311 6.36534C12.0425 6.31537 11.9378 6.10905 11.8443 5.95592C11.559 5.4804 11.293 4.89206 10.9609 4.42944Z" fill="white"/>
<path fill-rule="evenodd" clip-rule="evenodd" d="M5.08401 4.45218C5.18063 4.5262 5.26077 4.61952 5.31935 4.7262C5.28873 4.82614 5.18556 4.85032 5.09207 4.88739C5.00487 4.73003 4.87963 4.59703 4.72778 4.50053C4.84179 4.45947 4.96319 4.44299 5.08401 4.45218Z" fill="white"/>
<path fill-rule="evenodd" clip-rule="evenodd" d="M4.83566 5.06794C4.70993 5.06794 4.61644 4.96477 4.44881 4.95349C4.32504 4.94448 4.201 4.96695 4.08826 5.01881C3.97552 5.07067 3.87774 5.15023 3.80404 5.25008C3.69766 5.23557 3.64285 5.16949 3.5542 5.13564C3.62029 4.57147 4.71961 4.5344 4.83566 5.06794Z" fill="white"/>
<path fill-rule="evenodd" clip-rule="evenodd" d="M7.97567 4.7937C8.45924 5.18056 8.60109 5.89947 8.79613 6.5668C8.77875 6.6107 8.74579 6.64665 8.70356 6.66777C8.66132 6.68888 8.61279 6.69368 8.56724 6.68124C8.30772 6.84243 8.22229 7.18577 7.97567 7.36469C7.91119 6.96493 7.59526 6.81825 7.47437 6.47653C7.64845 5.92365 7.93053 5.48037 7.97567 4.7937Z" fill="white"/>
<path fill-rule="evenodd" clip-rule="evenodd" d="M1.18948 4.86308C1.67305 4.79377 2.2485 4.92756 2.19208 5.45465C2.16629 5.67871 1.81973 5.95273 1.5989 6.04622C1.2056 6.21708 0.291648 6.17034 0.278753 5.6368C0.267469 5.22899 0.765547 4.92434 1.18948 4.86308Z" fill="white"/>
<path fill-rule="evenodd" clip-rule="evenodd" d="M5.28877 5.06787C5.31939 5.25163 5.1711 5.44989 5.17432 5.68201H4.92447C4.85516 5.28709 5.1582 5.26452 5.28877 5.06787Z" fill="white"/>
<path fill-rule="evenodd" clip-rule="evenodd" d="M7.65655 5.06787C7.65655 5.74165 7.33417 6.27357 7.04241 6.72974C6.61256 6.76662 6.19816 6.9077 5.8351 7.14078C5.86181 6.97451 5.83944 6.80405 5.77072 6.65031C5.70201 6.49656 5.58994 6.36619 5.44824 6.27519C5.88023 5.56756 7.01985 5.57078 7.65655 5.06787Z" fill="white"/>
<path fill-rule="evenodd" clip-rule="evenodd" d="M5.44829 5.09033C5.5579 5.28376 5.41122 5.5739 5.31128 5.70608C5.36912 5.50373 5.41487 5.29812 5.44829 5.09033Z" fill="white"/>
<path fill-rule="evenodd" clip-rule="evenodd" d="M4.67461 5.18237C4.76649 5.43705 4.24907 5.58857 4.12817 5.70624C4.27002 5.49186 4.52954 5.39514 4.67461 5.18237Z" fill="white"/>
<path fill-rule="evenodd" clip-rule="evenodd" d="M2.98839 5.3645C3.02547 5.50151 2.91424 5.63853 2.89812 5.79649C2.82075 6.47994 3.13507 7.10536 3.73954 6.93127C3.8556 6.94578 3.67345 6.98285 3.71697 7.06828C3.7347 7.18595 3.85076 7.0844 3.87816 7.11342C3.79918 7.38422 3.63476 7.59699 3.37686 7.63729C2.15826 7.82749 1.93421 5.59339 2.98839 5.3645ZM2.6918 7.00381C2.82237 7.165 3.42522 7.53251 3.57996 7.165C3.4365 7.02799 3.20761 7.11019 3.05609 7.05055C2.75466 6.93127 2.69986 6.61534 2.57252 6.32197C2.53342 6.43648 2.52385 6.559 2.5447 6.67819C2.56555 6.79738 2.61615 6.90938 2.6918 7.00381Z" fill="white"/>
<path fill-rule="evenodd" clip-rule="evenodd" d="M3.67192 5.4805C3.4782 5.70686 3.26219 5.91315 3.02716 6.09625C3.01265 6.00437 3.04005 5.95602 3.11903 5.95924C3.29312 5.80288 3.41079 5.46922 3.67192 5.4805Z" fill="white"/>
<path fill-rule="evenodd" clip-rule="evenodd" d="M4.58263 5.54658C4.67451 5.53691 4.60681 5.68843 4.62777 5.7513C4.46658 5.77064 4.35213 5.96407 4.24091 5.96407C4.22157 5.77386 4.51332 5.70939 4.58263 5.54658Z" fill="white"/>
<path fill-rule="evenodd" clip-rule="evenodd" d="M3.87656 5.8189C3.92653 5.88338 3.80403 5.94141 3.73955 6.00105C3.67508 6.06069 3.59932 6.13645 3.53484 6.20576C3.4075 6.34277 3.26243 6.57489 3.12542 6.52814C3.06739 6.47334 3.17055 6.47817 3.21568 6.46044C3.38816 6.20737 3.64123 6.0349 3.83143 5.79956C3.84916 5.80278 3.854 5.8189 3.87656 5.8189Z" fill="white"/>
<path fill-rule="evenodd" clip-rule="evenodd" d="M10.0485 5.97846C9.90826 6.44753 10.3096 6.70382 10.2532 7.04877C10.3741 6.99074 10.3999 7.03587 10.5031 7.0939C10.4595 7.1487 10.3822 7.16966 10.3419 7.23091C10.8593 7.26637 11.0737 6.83277 11.2526 6.4572C11.2816 6.48782 11.3606 6.47009 11.3896 6.50233C11.3896 7.08423 10.6787 7.79185 10.2048 7.27605C10.0437 7.09229 10.0437 6.81182 9.90987 6.54746C10.0388 6.36048 9.8325 6.12515 9.88891 5.96396C9.94855 5.96396 10.0179 5.94784 10.0485 5.97846Z" fill="white"/>
<path fill-rule="evenodd" clip-rule="evenodd" d="M10.2308 5.96416C10.2469 6.02541 10.184 6.00929 10.184 6.05442C10.1599 6.05442 10.1695 6.00929 10.1389 6.00929C10.1438 5.96416 10.1776 5.94965 10.2308 5.96416Z" fill="white"/>
<path fill-rule="evenodd" clip-rule="evenodd" d="M10.3661 5.97848C10.4387 5.9672 10.4274 6.03974 10.4806 6.04618C10.3452 6.09293 10.2904 6.22188 10.1582 6.27507C10.2066 6.15257 10.3275 6.10582 10.3661 5.97848Z" fill="white"/>
<path fill-rule="evenodd" clip-rule="evenodd" d="M4.05885 6.07043C4.025 6.29609 3.68166 6.44922 3.48985 6.61686C3.43021 6.66683 3.39797 6.78934 3.3077 6.75226C3.26096 6.6217 3.45438 6.50081 3.55755 6.38797C3.67413 6.27494 3.78191 6.15315 3.87993 6.02368C3.93717 6.04732 3.99736 6.06304 4.05885 6.07043Z" fill="white"/>
<path fill-rule="evenodd" clip-rule="evenodd" d="M10.5708 6.16064C10.5869 6.30088 10.3306 6.48302 10.2484 6.52493C10.2226 6.37019 10.4773 6.18482 10.5708 6.16064Z" fill="white"/>
<path fill-rule="evenodd" clip-rule="evenodd" d="M4.05875 6.27515C4.05875 6.45246 3.89756 6.67167 3.8766 6.91991C3.76861 6.94409 3.62192 6.85221 3.48975 6.82964C3.69518 6.66172 3.88557 6.47618 4.05875 6.27515Z" fill="white"/>
<path fill-rule="evenodd" clip-rule="evenodd" d="M5.15822 6.34277C4.93578 6.6168 4.49412 6.70545 4.22493 6.95852C4.18463 6.79733 4.42642 6.69256 4.56665 6.6168C4.74557 6.51847 4.96157 6.4685 5.09052 6.34277H5.15822Z" fill="white"/>
<path fill-rule="evenodd" clip-rule="evenodd" d="M9.29587 6.36538C9.30812 6.36468 9.32038 6.36657 9.33185 6.37094C9.34331 6.37531 9.35373 6.38205 9.3624 6.39073C9.37108 6.3994 9.37782 6.40982 9.38219 6.42128C9.38656 6.43275 9.38845 6.44501 9.38775 6.45726C9.32972 6.47499 9.29749 6.51851 9.22656 6.52495C9.24752 6.46854 9.29104 6.4363 9.29587 6.36538Z" fill="white"/>
<path fill-rule="evenodd" clip-rule="evenodd" d="M10.7772 6.41046C10.6478 6.54016 10.5262 6.67741 10.4129 6.82149C10.2679 6.67803 10.6064 6.31535 10.7772 6.41046Z" fill="white"/>
<path fill-rule="evenodd" clip-rule="evenodd" d="M11.0948 6.43481C10.9675 6.66048 10.8289 7.07958 10.4807 6.9345C10.6822 6.77815 10.8208 6.44771 11.0948 6.43481Z" fill="white"/>
<path fill-rule="evenodd" clip-rule="evenodd" d="M5.49349 6.79903C5.05839 6.97345 4.65153 7.21137 4.28617 7.50505C4.76975 7.45185 5.1566 6.99407 5.60794 6.91186C5.33391 7.16171 4.92771 7.28099 4.69721 7.57275C5.04216 7.5389 5.31135 7.23102 5.60794 7.07144C5.73528 7.29872 5.43224 7.29066 5.40161 7.43573C5.46609 7.47603 5.54024 7.33257 5.6305 7.3229C5.5628 7.69525 5.22591 7.80647 4.96962 7.98217C5.26299 8.0676 5.59988 7.83065 5.72077 7.59531C5.88196 7.65334 5.90614 7.84999 5.99479 7.98217C5.89889 8.16678 5.74248 8.31283 5.55174 8.39587C5.361 8.47892 5.14753 8.49391 4.94706 8.43834C4.50701 8.34646 4.30229 7.79358 4.21847 7.36803C4.61369 7.18988 4.98782 6.96822 5.33391 6.70715C4.89225 6.74423 4.56987 7.09723 4.17334 7.25359C4.15561 7.00374 4.46348 6.94088 4.6279 6.84416C4.82939 6.7265 5.03571 6.60722 5.22108 6.50244C5.34528 6.56443 5.44227 6.67002 5.49349 6.79903ZM4.71978 7.91447H4.65046C4.5328 8.07888 4.83583 8.07888 4.71978 7.91447Z" fill="white"/>
<path fill-rule="evenodd" clip-rule="evenodd" d="M9.59249 6.68457C9.4313 6.89412 9.10892 6.95215 8.88647 7.09399C9.07067 6.88394 9.31869 6.74012 9.59249 6.68457Z" fill="white"/>
<path fill-rule="evenodd" clip-rule="evenodd" d="M7.33731 6.77002C7.58393 6.95055 7.70644 7.25359 7.79348 7.59048C7.61031 7.74841 7.43545 7.91574 7.26961 8.09178C7.03911 8.0805 6.94723 8.21429 6.76831 8.25297C6.92464 7.7465 7.11473 7.25107 7.33731 6.77002Z" fill="white"/>
<path fill-rule="evenodd" clip-rule="evenodd" d="M9.63745 6.82153C9.6713 6.82153 9.64551 6.88923 9.68258 6.88923C9.41017 7.05042 9.09102 7.17776 8.8186 7.3454C8.954 7.12457 9.41984 7.03592 9.63745 6.82153Z" fill="white"/>
<path fill-rule="evenodd" clip-rule="evenodd" d="M6.9312 6.84424C6.94732 6.95868 6.79419 7.11504 6.72649 7.29879C6.62345 7.5929 6.56214 7.9 6.54435 8.21113C6.46773 8.21835 6.39045 8.21013 6.31707 8.18695C6.32028 8.01906 6.27676 7.85357 6.19137 7.70897C6.10598 7.56438 5.98208 7.44636 5.8335 7.36811C6.07367 7.06668 6.48471 6.94095 6.9312 6.84424Z" fill="white"/>
<path fill-rule="evenodd" clip-rule="evenodd" d="M9.75211 7.04883C9.75211 7.07462 9.75211 7.08913 9.77468 7.09396C9.39911 7.39378 8.87201 7.54368 8.48516 7.82254C8.44002 7.77741 8.34976 7.7758 8.34814 7.68714C8.86557 7.55013 9.29111 7.181 9.75211 7.04883Z" fill="white"/>
<path fill-rule="evenodd" clip-rule="evenodd" d="M9.77466 7.27612C9.79562 7.28741 9.81496 7.29708 9.8198 7.32287C9.61993 7.4692 9.40352 7.59148 9.17503 7.68716C8.9671 7.79677 8.74143 8.01921 8.53027 7.91444C8.9397 7.68716 9.4007 7.52436 9.77466 7.27612Z" fill="white"/>
<path fill-rule="evenodd" clip-rule="evenodd" d="M9.79714 7.48096C9.84872 7.49063 9.80681 7.59379 9.81971 7.64215C9.4522 7.74209 9.2362 8.19664 8.77197 8.05318C9.10402 7.85008 9.48766 7.7034 9.79714 7.48096Z" fill="white"/>
<path fill-rule="evenodd" clip-rule="evenodd" d="M4.92438 8.78007C5.08557 9.4345 4.7922 10.1292 4.24093 10.2147C3.16418 10.3759 2.88855 8.89613 3.30764 8.02892C3.55062 7.99785 3.77548 7.884 3.94434 7.70654C4.12165 8.22074 4.3715 8.64951 4.92438 8.78007ZM3.28507 9.26364H3.37534C3.39149 9.23987 3.40012 9.21179 3.40012 9.18305C3.40012 9.15431 3.39149 9.12623 3.37534 9.10245C3.35631 9.09974 3.33689 9.10277 3.31959 9.11114C3.30228 9.11952 3.28786 9.13286 3.27817 9.14947C3.26848 9.16608 3.26397 9.1852 3.2652 9.20438C3.26642 9.22357 3.27335 9.24196 3.28507 9.25719V9.26364ZM4.65036 9.17337C4.54719 9.30147 4.41948 9.40767 4.27471 9.48572C4.12995 9.56378 3.97104 9.61213 3.80733 9.62793C3.70095 9.64405 3.55587 9.54411 3.53492 9.71981C3.77348 9.95998 4.21514 9.73593 4.44564 9.55862C4.57037 9.46837 4.65938 9.33714 4.6971 9.18788C4.69065 9.17176 4.67453 9.1637 4.65036 9.16693V9.17337ZM3.33021 9.51026C3.35398 9.52641 3.38206 9.53504 3.4108 9.53504C3.43954 9.53504 3.46762 9.52641 3.4914 9.51026V9.39582C3.47422 9.38069 3.45245 9.37181 3.42959 9.37062C3.40674 9.36942 3.38415 9.37598 3.3655 9.38923C3.34684 9.40247 3.3332 9.42164 3.32679 9.44361C3.32039 9.46557 3.32159 9.48906 3.33021 9.51026Z" fill="white"/>
<path fill-rule="evenodd" clip-rule="evenodd" d="M9.75205 7.98216C9.73271 8.28359 9.48609 8.55116 9.25075 8.71074C9.07964 8.52072 8.8592 8.38185 8.61391 8.30957C8.36863 8.2373 8.1081 8.23444 7.86129 8.30132C7.81801 8.20886 7.80234 8.10587 7.81616 8.00473C7.90965 7.90963 8.03215 7.84354 8.13854 7.75488C8.38677 8.0144 8.79297 8.39964 9.36842 8.27875C9.44922 8.25812 9.52495 8.22116 9.59093 8.17015C9.6569 8.11914 9.71174 8.05517 9.75205 7.98216Z" fill="white"/>
<path fill-rule="evenodd" clip-rule="evenodd" d="M2.62429 7.84506C2.53563 7.95466 2.38411 8.00625 2.30191 8.11908C2.28901 8.01269 2.47438 7.71771 2.62429 7.84506Z" fill="white"/>
<path fill-rule="evenodd" clip-rule="evenodd" d="M3.03374 7.98213C2.74876 8.17171 2.48217 8.38758 2.23746 8.62689C2.18588 8.61722 2.22778 8.51406 2.21489 8.4657C2.53243 8.44636 2.6904 7.97085 3.03374 7.98213Z" fill="white"/>
<path fill-rule="evenodd" clip-rule="evenodd" d="M2.94342 8.16431C3.01435 8.20783 2.90796 8.26424 2.92086 8.3255C2.65167 8.43672 2.43729 8.71719 2.21484 8.80907C2.41794 8.5431 2.73065 8.4077 2.94342 8.16431Z" fill="white"/>
<path fill-rule="evenodd" clip-rule="evenodd" d="M7.54205 8.2561C7.57429 8.28512 7.64038 8.39956 7.5888 8.43825C7.51465 8.43502 7.50498 8.30124 7.54205 8.2561Z" fill="white"/>
<path fill-rule="evenodd" clip-rule="evenodd" d="M2.05509 8.32397C1.99868 8.84301 2.15181 9.45231 2.55639 9.50872C2.54511 9.34753 2.67406 9.26533 2.80624 9.18634C2.96743 9.58448 2.41938 10.039 1.98578 9.93749C1.71982 9.53774 1.88584 8.70438 2.05509 8.32397Z" fill="white"/>
<path fill-rule="evenodd" clip-rule="evenodd" d="M10.6852 8.3689C10.4474 8.53415 10.1961 8.67919 9.93408 8.8025C10.1628 8.62339 10.4157 8.47742 10.6852 8.3689Z" fill="white"/>
<path fill-rule="evenodd" clip-rule="evenodd" d="M6.74587 9.99378C6.32678 10.3774 5.45635 10.0679 5.33385 9.60531C5.69855 9.47987 6.04368 9.3035 6.35902 9.08145C6.00923 9.11207 5.62399 9.42478 5.31128 9.49248C5.3677 9.28132 5.63366 9.27487 5.81258 9.19589C5.9915 9.11691 6.17687 9.0073 6.33645 8.92348C6.40737 8.92348 6.54439 9.02503 6.58629 8.92348C6.57662 9.24586 6.24135 9.44251 6.10272 9.71976C6.4251 9.52472 6.77972 9.23619 6.71847 8.71716C6.84904 8.60432 6.94253 8.45603 7.12789 8.39478C7.31326 8.74939 7.05213 8.86706 6.90062 9.16849C6.77591 9.42472 6.72246 9.70978 6.74587 9.99378ZM5.53856 9.73588C5.81504 9.63671 6.07608 9.49887 6.31388 9.32646C6.01246 9.41995 5.71909 9.5215 5.53856 9.73588Z" fill="white"/>
<path fill-rule="evenodd" clip-rule="evenodd" d="M10.9125 8.55107C10.5353 8.6365 10.2242 8.91052 9.93408 9.00723C10.171 8.77351 10.5692 8.70097 10.7771 8.43823C10.8448 8.45274 10.9077 8.47369 10.9125 8.55107Z" fill="white"/>
<path fill-rule="evenodd" clip-rule="evenodd" d="M6.2219 8.5979C6.2622 8.61402 6.2219 8.6382 6.2219 8.6656C5.89952 8.76231 5.59326 8.98798 5.33374 9.07502C5.39822 8.91383 5.62227 8.89288 5.76573 8.82518C5.90919 8.75748 6.07522 8.66238 6.2219 8.5979Z" fill="white"/>
<path fill-rule="evenodd" clip-rule="evenodd" d="M10.9126 8.62036C10.9642 8.62036 10.9223 8.71708 10.9368 8.75737C10.5629 8.86215 10.3211 9.09748 10.0245 9.27963C9.98258 9.27963 10.01 9.20548 9.95679 9.21193C10.1825 8.92179 10.658 8.88149 10.9126 8.62036Z" fill="white"/>
<path fill-rule="evenodd" clip-rule="evenodd" d="M11.0497 8.64307C11.3301 9.15726 11.0239 10.1857 10.3662 9.98739C9.97129 9.8665 9.65858 9.36198 9.54736 8.93966C9.61345 8.87679 9.64891 8.77847 9.75208 8.75751C9.76205 8.80164 9.76093 8.84755 9.74884 8.89115C9.73674 8.93475 9.71404 8.97467 9.68276 9.00736C9.82945 9.22658 9.90682 9.63278 10.2985 9.53123C10.2985 9.40227 10.1373 9.44257 10.1164 9.32651C10.4162 9.2169 10.7047 8.97351 10.9368 8.87034C10.9262 9.01055 10.8953 9.14847 10.8449 9.27977C11.0239 9.17822 11.069 8.94288 11.0497 8.64307ZM10.3162 9.41678C10.4815 9.37935 10.6273 9.28238 10.7257 9.14437C10.5774 9.21614 10.4397 9.30779 10.3162 9.41678Z" fill="white"/>
<path fill-rule="evenodd" clip-rule="evenodd" d="M8.68162 8.70435C8.72837 8.71724 8.72998 8.73981 8.70419 8.77366C8.23835 8.9687 7.77735 9.28785 7.35986 9.4571C7.37115 9.29591 7.57425 9.29591 7.68224 9.25078C8.02452 9.08589 8.35808 8.9035 8.68162 8.70435Z" fill="white"/>
<path fill-rule="evenodd" clip-rule="evenodd" d="M6.26703 8.7334C6.29282 8.7334 6.28315 8.78014 6.31378 8.78014C6.01396 8.96551 5.65934 9.10252 5.33374 9.26371C5.41756 9.10252 5.62872 9.06545 5.78991 8.9913C5.95964 8.92677 6.12007 8.84005 6.26703 8.7334Z" fill="white"/>
<path fill-rule="evenodd" clip-rule="evenodd" d="M5.40138 8.78003C5.46586 8.82355 5.33368 8.86062 5.28855 8.8703C5.2418 8.75585 5.39171 8.83806 5.40138 8.78003Z" fill="white"/>
<path fill-rule="evenodd" clip-rule="evenodd" d="M2.78371 8.80249C2.88364 9.08619 2.62252 9.19579 2.46133 9.30379C2.44682 9.24093 2.36622 9.24576 2.37106 9.16678C2.52185 9.06122 2.66027 8.93903 2.78371 8.80249Z" fill="white"/>
<path fill-rule="evenodd" clip-rule="evenodd" d="M2.94343 9.80347C3.01804 9.98573 3.13555 10.1473 3.28596 10.2744C3.43638 10.4015 3.61527 10.4905 3.80741 10.5337C3.94926 11.201 3.55112 12.0134 2.92087 11.6942C2.75001 11.6088 2.55335 11.2284 2.50983 10.9882C2.4673 10.77 2.48522 10.5443 2.56164 10.3355C2.63806 10.1267 2.77008 9.9427 2.94343 9.80347Z" fill="white"/>
<path fill-rule="evenodd" clip-rule="evenodd" d="M5.51595 10.3501C5.45147 10.4984 5.22903 10.5758 5.06139 10.6918C4.89376 10.8079 4.76158 10.9787 4.60522 11.0142C4.83573 10.7241 5.23064 10.5887 5.51595 10.3501Z" fill="white"/>
<path fill-rule="evenodd" clip-rule="evenodd" d="M5.69813 10.4871C5.74326 10.5838 5.56918 10.6161 5.49342 10.6692C5.23712 10.8482 4.93086 11.1045 4.65039 11.2624C4.7197 11.0674 4.94376 10.9642 5.10656 10.8514C5.29808 10.7362 5.48073 10.6069 5.65299 10.4645C5.67878 10.4613 5.69329 10.4774 5.69813 10.4871Z" fill="white"/>
<path fill-rule="evenodd" clip-rule="evenodd" d="M6.86027 10.5095C6.69493 10.6882 6.49246 10.8285 6.26709 10.9206C6.38637 10.7046 6.63299 10.6175 6.86027 10.5095Z" fill="white"/>
<path fill-rule="evenodd" clip-rule="evenodd" d="M9.3183 10.6692C9.96306 11.3575 9.17968 12.3133 8.38501 12.1199V11.7862C8.93789 11.6557 9.16678 11.2011 9.3183 10.6692Z" fill="white"/>
<path fill-rule="evenodd" clip-rule="evenodd" d="M6.28638 11.011C6.30589 11.0268 6.33059 11.0349 6.35569 11.0336C6.37181 11.0964 6.31056 11.0803 6.31056 11.1254C6.26381 11.1222 6.3025 11.0448 6.28638 11.011Z" fill="white"/>
<path fill-rule="evenodd" clip-rule="evenodd" d="M7.15527 11.1931C7.06339 11.3285 6.88447 11.3769 6.74585 11.4671C6.85745 11.3432 6.99816 11.249 7.15527 11.1931Z" fill="white"/>
<path fill-rule="evenodd" clip-rule="evenodd" d="M7.29222 11.3977C7.12136 11.5766 6.86668 11.6717 6.64746 11.8087C6.76997 11.5831 7.08106 11.4445 7.29222 11.3977Z" fill="white"/>
<path fill-rule="evenodd" clip-rule="evenodd" d="M7.45195 11.5574C7.33428 11.7895 6.84426 11.8459 6.7008 12.1264C7.04575 12.0925 7.30688 11.7766 7.67923 11.6944C7.39231 11.9539 6.98933 12.0974 6.7008 12.3553C6.62343 12.2795 6.66534 12.0861 6.65567 11.9442C6.95709 11.8524 7.15536 11.6557 7.45195 11.5574Z" fill="white"/>
<path fill-rule="evenodd" clip-rule="evenodd" d="M7.93047 11.7668C7.9482 11.8458 7.89662 11.8555 7.90791 11.928C7.5001 12.0409 7.12452 12.3729 6.74572 12.5889C6.66674 12.4277 6.86178 12.389 6.95044 12.3391C7.26478 12.166 7.56886 11.975 7.86116 11.7668H7.93047Z" fill="white"/>
<path fill-rule="evenodd" clip-rule="evenodd" d="M4.87918 12.5374C4.76151 12.6985 4.58742 12.8082 4.46814 12.9693C4.46169 12.7727 4.7067 12.6308 4.87918 12.5374Z" fill="white"/>
<path fill-rule="evenodd" clip-rule="evenodd" d="M5.1967 12.5601C4.94202 12.768 4.67445 13.0839 4.44556 13.2435C4.59224 12.9566 4.87593 12.8083 5.0613 12.5601H5.1967Z" fill="white"/>
<path fill-rule="evenodd" clip-rule="evenodd" d="M6.49601 13.54C6.28002 13.8334 6.24455 14.433 6.359 14.8618C5.97376 14.9279 5.50469 14.7892 5.49341 14.5201C5.49341 14.4056 5.6546 14.2783 5.72069 14.1106C5.81799 13.7857 5.84167 13.4432 5.79 13.108C5.86898 13.021 5.92862 12.9146 6.08498 12.9033C6.17202 13.1644 6.35094 13.3337 6.49601 13.54Z" fill="white"/>
<path fill-rule="evenodd" clip-rule="evenodd" d="M8.04342 14.7458C7.61626 14.9553 7.12785 14.7571 6.86028 14.5411C6.8909 14.9312 7.39704 15.1536 7.90802 15.065C7.87065 15.1678 7.8077 15.2595 7.72511 15.3313C7.64251 15.4032 7.54299 15.4528 7.43592 15.4755C7.32885 15.4983 7.21775 15.4934 7.11309 15.4613C7.00843 15.4292 6.91366 15.3711 6.83771 15.2922C6.5782 15.0101 6.51533 13.7158 6.86028 13.4708C7.57596 12.9663 8.32066 13.7013 8.04342 14.7458Z" fill="white"/>
<path fill-rule="evenodd" clip-rule="evenodd" d="M10.4774 0.741455C11.077 0.778529 11.5058 0.988076 11.6847 1.44747C10.9658 1.41201 10.5 1.62961 10.0454 1.85689C10.1776 1.5603 10.3065 1.06867 10.4774 0.741455Z" fill="white"/>
<path fill-rule="evenodd" clip-rule="evenodd" d="M8.45435 2.44846C8.44354 2.59549 8.37865 2.73331 8.27221 2.83532C7.62745 2.93687 7.64518 2.16638 7.7016 1.5603C7.81443 1.86656 7.74351 2.35336 7.95305 2.56291C8.12714 2.60643 8.43179 2.66929 8.45435 2.44846Z" fill="white"/>
<path fill-rule="evenodd" clip-rule="evenodd" d="M3.80744 5.61426C3.85096 5.73515 3.69138 5.76416 3.6269 5.81897C3.43259 5.99708 3.24956 6.18712 3.07886 6.38797C3.08853 6.28965 3.18847 6.19454 3.26261 6.11556C3.4315 5.93514 3.61362 5.76758 3.80744 5.61426Z" fill="white"/>
<path fill-rule="evenodd" clip-rule="evenodd" d="M5.22093 5.97854C5.07908 6.32348 4.55199 6.40408 4.30859 6.57011C4.51331 6.32348 4.92756 6.28641 5.12905 6.04624C4.89694 6.01239 4.66805 6.1768 4.48429 6.27513C4.56811 6.10104 4.86309 5.94791 5.22093 5.97854Z" fill="white"/>
<path fill-rule="evenodd" clip-rule="evenodd" d="M9.79703 7.73706C9.84861 7.74673 9.8067 7.84989 9.8196 7.89825C9.61005 7.96112 9.43919 8.05944 9.22803 8.12553C9.40695 7.97885 9.63423 7.88697 9.79703 7.73706Z" fill="white"/>
<path fill-rule="evenodd" clip-rule="evenodd" d="M2.09549 7.80005C2.14062 7.86936 1.99394 7.94028 1.98104 8.02894C1.94719 7.96608 2.06164 7.8613 2.09549 7.80005Z" fill="white"/>
<path fill-rule="evenodd" clip-rule="evenodd" d="M10.413 8.32397C10.2824 8.44487 10.0906 8.49645 9.95679 8.62056C10.0019 8.50451 10.2356 8.382 10.413 8.32397Z" fill="white"/>
<path fill-rule="evenodd" clip-rule="evenodd" d="M2.8514 8.4834C2.81755 8.73808 2.50323 8.90894 2.2824 9.0524C2.23082 8.90733 2.41458 8.80739 2.50968 8.73002C2.63173 8.65973 2.74624 8.57709 2.8514 8.4834Z" fill="white"/>
<path fill-rule="evenodd" clip-rule="evenodd" d="M7.81609 8.80249C7.8435 8.80249 7.60493 8.92016 7.54207 8.98464C7.50983 8.88953 7.72583 8.84762 7.81609 8.80249Z" fill="white"/>
<path fill-rule="evenodd" clip-rule="evenodd" d="M7.13258 9.8956C7.11808 9.98587 7.21963 9.96169 7.29377 9.9633C7.36953 10.1245 7.49365 10.3324 7.7032 10.2857C7.68869 10.1648 7.43884 10.081 7.43078 9.87626C7.9087 9.6992 8.35458 9.4455 8.75093 9.12511C8.73936 9.30853 8.71621 9.49104 8.68162 9.67154C8.66857 9.66188 8.65372 9.65491 8.63795 9.65103C8.62218 9.64716 8.60579 9.64646 8.58974 9.64898C8.30007 9.81337 8.02599 10.0038 7.7709 10.218C8.09007 10.0999 8.38383 9.9221 8.63649 9.69411C8.68968 9.69411 8.64938 9.79405 8.63649 9.80694C8.82831 9.69734 8.86538 9.29114 8.77189 9.03323C8.5417 9.16748 8.3038 9.28804 8.05943 9.3943C7.82248 9.51358 7.58875 9.62319 7.35341 9.73602C7.35341 9.56194 7.57908 9.51841 7.69514 9.46361C8.09914 9.28008 8.48777 9.06447 8.85732 8.81885C9.32961 9.33627 9.03624 11.2851 8.35602 11.4156C7.67579 11.5462 7.4598 11.1223 7.25348 10.6467C7.05682 10.218 6.9311 9.69572 7.23091 9.23472C7.16643 9.3814 7.28733 9.80533 7.13258 9.8956ZM8.61231 9.3943C8.23029 9.59579 7.81764 9.76826 7.51944 10.0552C7.93853 9.88915 8.36569 9.73118 8.61231 9.3943ZM7.99817 10.3743C8.22138 10.2801 8.41712 10.1309 8.56718 9.94073C8.34041 10.0287 8.14315 10.179 7.99817 10.3743ZM8.72676 10.2599C8.8412 10.2373 8.8686 10.1277 8.86377 9.98748H8.79607C8.74391 10.0683 8.71958 10.164 8.72676 10.2599ZM8.58974 10.7999C8.45273 10.679 8.34151 10.845 8.20289 10.8676C7.79991 10.9353 7.60648 10.7064 7.45174 10.4356C7.22769 10.9933 8.40276 11.406 8.58974 10.7999Z" fill="white"/>
<path fill-rule="evenodd" clip-rule="evenodd" d="M5.17411 10.0098C5.23376 9.94856 5.22247 10.0759 5.28856 10.0775C5.10158 10.2693 4.82594 10.3741 4.6438 10.5788C4.70505 10.3596 5.11931 10.3032 5.17411 10.0098Z" fill="white"/>
<path fill-rule="evenodd" clip-rule="evenodd" d="M5.4014 10.2373C5.158 10.4356 4.8469 10.5774 4.62769 10.7999C4.83754 10.5539 5.10269 10.3611 5.4014 10.2373Z" fill="white"/>
<path fill-rule="evenodd" clip-rule="evenodd" d="M5.79001 10.898C5.84321 11.2543 5.39993 11.3123 5.26615 11.5573C5.58853 11.4154 6.03502 11.2043 5.92541 10.5563C6.20266 11.3735 5.85127 12.3826 4.94699 12.1956C4.38282 12.0796 4.14104 11.3365 4.24098 10.5837C4.33285 10.5837 4.37799 10.5386 4.46825 10.5386C4.36832 11.1108 4.66652 11.9522 5.28871 11.7217C5.08239 11.6105 4.78096 11.5928 4.71971 11.3349C5.12107 11.1447 5.44023 10.8706 5.81258 10.6514C5.81258 10.9174 5.51116 10.9738 5.35641 11.085C5.17731 11.1988 5.01462 11.3366 4.87284 11.4944C5.20888 11.3467 5.51865 11.1452 5.79001 10.898Z" fill="white"/>
<path fill-rule="evenodd" clip-rule="evenodd" d="M6.77012 11.011C6.46386 11.4091 6.21079 12.9098 7.06671 12.9243C7.08444 12.8373 7.01835 12.8357 6.97483 12.8099C7.2005 12.6261 7.51966 12.5342 7.68085 12.286C7.52313 12.3581 7.37117 12.4422 7.22629 12.5375C7.10056 12.6213 6.96355 12.8324 6.81525 12.6986C7.10701 12.3972 7.57607 12.2747 7.86299 11.9701C7.78139 12.2379 7.65848 12.4913 7.4987 12.7212C7.8098 12.6068 7.98227 12.1538 8.11445 11.7879C8.16514 12.2618 8.02604 12.7365 7.72759 13.1081C7.56193 13.0218 7.37298 12.9909 7.18848 13.02C7.00398 13.049 6.83363 13.1363 6.70242 13.2693C6.28655 12.9791 6.14632 12.2135 6.28655 11.58C6.46386 11.4043 6.58153 11.1722 6.77012 11.011Z" fill="white"/>
<path fill-rule="evenodd" clip-rule="evenodd" d="M5.19679 13.743C5.38216 13.7527 5.44341 13.4464 5.49338 13.2433C5.72227 14.017 4.98402 14.8762 4.40051 14.4039C3.90405 14.0025 3.88632 12.6179 4.40051 12.2407C4.29574 12.4551 4.33604 12.8146 4.1958 12.9919C4.29574 13.0966 4.26189 13.3368 4.28607 13.5157C4.42953 13.6769 4.49723 13.8978 4.76964 13.9268C4.84379 13.8413 4.69388 13.8333 4.70194 13.743C4.95857 13.5385 5.18775 13.3018 5.38377 13.0386C5.08074 13.0999 4.86152 13.5609 4.61006 13.6834C4.68691 13.5053 4.80191 13.3463 4.94695 13.2175C5.07912 13.0741 5.26933 12.9661 5.3338 12.7839C4.9808 12.9322 4.77447 13.3481 4.51496 13.5125C4.53108 13.332 4.74062 13.1901 4.87925 13.058C5.02451 12.9098 5.18684 12.7794 5.36282 12.6695C5.55625 13.0064 5.35637 13.4513 5.19679 13.743ZM5.3193 13.448C5.08038 13.5721 4.89225 13.7756 4.78737 14.0235C5.01864 13.8897 5.20406 13.6891 5.3193 13.448Z" fill="white"/>
<path fill-rule="evenodd" clip-rule="evenodd" d="M4.67455 12.4456C4.65198 12.5052 4.58428 12.5229 4.56171 12.5826C4.52464 12.5536 4.60362 12.4456 4.67455 12.4456Z" fill="white"/>
</g>
<defs>
<clipPath id="clip0_227_14437">
<rect width="13" height="15.9014" fill="white"/>
</clipPath>
</defs>
</svg>
