<svg width="153" height="33" viewBox="0 0 153 33" fill="none" xmlns="http://www.w3.org/2000/svg">
<path d="M69.4399 14.4005C70.6202 13.4628 71.8773 12.7219 73.3438 12.7219C74.6008 12.7219 75.3264 13.3121 75.0249 14.6432L74.6774 16.217C76.144 14.1297 78.3693 12.7373 80.3979 12.7373C82.2451 12.7373 83.5762 14.2038 82.774 17.865L81.0647 25.8848C80.8527 26.9068 81.3049 27.3207 82.0024 27.3207C83.2798 27.3207 84.7872 26.4444 85.6661 25.5808C85.8348 25.6472 85.9805 25.7614 86.0853 25.9093C86.1901 26.0572 86.2495 26.2325 86.2563 26.4137C86.2431 26.6987 86.13 26.9701 85.9369 27.1802C84.3018 29.0248 81.9564 30.6293 79.6263 30.6293C77.8864 30.6293 76.0494 29.753 76.9002 25.683L78.3693 18.7439C78.6887 17.2748 78.1879 16.6846 77.4316 16.6846C76.494 16.6846 75.099 17.5635 74.33 18.5011L72.1941 28.4525C71.8466 30.057 70.5155 30.6472 69.2738 30.6472C68.6964 30.6556 68.1288 30.4977 67.6387 30.1924L70.5002 16.8047C70.6356 16.2451 70.4695 15.9258 70.1501 15.9258C69.9687 15.9258 69.772 16.0638 69.4552 16.3499C68.9851 16.0459 68.7424 14.9549 69.4399 14.4005Z" fill="#B37683"/>
<path d="M91.7494 14.9241L89.6901 24.7145C89.266 26.6664 89.8281 27.3 90.7351 27.3C92.0126 27.3 93.52 26.4237 94.3988 25.5602C94.5675 25.6266 94.7132 25.7407 94.818 25.8887C94.9228 26.0366 94.9823 26.2119 94.989 26.3931C94.9758 26.6781 94.8627 26.9494 94.6697 27.1595C93.0345 29.0042 90.3876 30.6087 88.0422 30.6087C85.9063 30.6087 84.5139 29.2775 85.3161 25.4503L87.5415 14.9189H85.8016C85.6202 13.7999 86.1797 12.8929 87.2681 12.8929H87.9656L88.6018 10.034C88.9492 8.42948 90.2803 7.83929 91.5374 7.83929C92.1145 7.83302 92.6815 7.99072 93.1725 8.29407L92.2042 12.8929H94.7463C94.9277 14.012 94.3682 14.9189 93.2772 14.9189L91.7494 14.9241Z" fill="#B37683"/>
<path d="M98.4533 25.0007C98.8033 26.876 100.088 27.5888 101.693 27.5888C104.204 27.5888 107.413 25.8182 108.913 23.8203C109.82 23.6389 110.17 24.3798 109.789 25.0007C107.385 28.5265 103.343 30.6215 99.953 30.6215C96.6674 30.6215 94.0205 28.6695 94.0205 24.3875C94.0205 19.85 97.0174 12.6042 102.769 12.6042C105.947 12.6042 106.749 14.3722 106.749 15.9461C106.749 18.9047 105.173 21.2654 98.4533 25.0007ZM98.3485 23.5035C101.724 21.3701 104.038 18.9353 104.038 16.664C104.038 15.8643 103.614 15.3048 103.016 15.3048C99.5596 15.3048 98.4533 21.0687 98.3485 23.5035Z" fill="#B37683"/>
<path d="M114.557 16.5285C115.952 13.7002 117.449 12.7319 119.054 12.7319C120.732 12.7319 121.609 14.063 121.609 15.4861C121.609 17.0574 120.625 18.7692 118.824 18.7692C118.478 18.7767 118.133 18.7301 117.802 18.6312C118.062 18.3362 118.198 17.9514 118.18 17.5582C118.18 17.0727 117.832 16.6793 117.107 16.6793C115.957 16.6793 114.322 18.2531 112.536 26.3011L112.112 28.4344C111.765 30.0389 110.431 30.6291 109.189 30.6291C108.613 30.6371 108.046 30.4793 107.557 30.1743L110.416 16.7866C110.523 16.2271 110.385 15.9077 110.068 15.9077C109.887 15.9077 109.69 16.0457 109.373 16.3318C108.918 16.061 108.676 14.97 109.373 14.4105C110.554 13.4729 111.808 12.7319 113.277 12.7319C114.534 12.7319 115.229 13.3221 114.956 14.6532L114.557 16.5285Z" fill="#B37683"/>
<path d="M122.291 14.4005C123.474 13.4628 124.728 12.7219 126.197 12.7219C127.454 12.7219 128.18 13.3121 127.878 14.6432L127.528 16.217C128.997 14.1297 131.223 12.7373 133.249 12.7373C135.096 12.7373 136.43 14.2038 135.627 17.865L133.916 25.8848C133.704 26.9068 134.158 27.3207 134.853 27.3207C136.131 27.3207 137.641 26.4444 138.517 25.5808C138.684 25.6473 138.829 25.7608 138.933 25.9077C139.038 26.0546 139.097 26.2286 139.105 26.4086C139.092 26.6934 138.98 26.9647 138.788 27.1751C137.153 29.0197 134.807 30.6242 132.475 30.6242C130.735 30.6242 128.898 29.7479 129.751 25.6779L131.223 18.7439C131.54 17.2748 131.041 16.6846 130.282 16.6846C129.345 16.6846 127.952 17.5635 127.181 18.5011L125.053 28.4525C124.703 30.057 123.371 30.6472 122.13 30.6472C121.552 30.6549 120.985 30.4971 120.495 30.1924L123.356 16.8047C123.492 16.2451 123.325 15.9258 123.009 15.9258C122.827 15.9258 122.631 16.0638 122.311 16.3499C121.839 16.0459 121.596 14.9549 122.291 14.4005Z" fill="#B37683"/>
<path d="M152.41 18.8281C152.41 24.0171 148.688 30.6139 143.213 30.6139C139.636 30.6139 138.083 27.7243 138.083 24.4412C138.083 19.1756 141.746 12.5967 147.012 12.5967C150.806 12.5967 152.41 15.4224 152.41 18.8281ZM142.543 23.3222C142.543 26.3881 143.588 27.5736 144.812 27.5736C147.569 27.5736 149.794 22.2083 149.794 18.542C149.794 16.6641 149.201 15.2206 147.766 15.2206C144.603 15.2436 142.543 19.9191 142.543 23.3222Z" fill="#B37683"/>
<path d="M63.7937 20.2511C63.165 20.2597 62.543 20.1204 61.9781 19.8443C61.4131 19.5683 60.921 19.1633 60.5413 18.662C60.1392 18.1375 59.8828 17.5162 59.7978 16.8608C59.7391 16.2128 59.7805 15.5596 59.9205 14.9241C60.2302 13.7176 60.6405 12.5391 61.1468 11.4009C61.6297 10.2665 62.1458 9.16027 62.644 8.05655L63.155 6.9375L63.8959 7.99523C64.5909 8.9942 65.2883 10.0085 65.968 11.0381C66.6765 12.1018 67.2369 13.257 67.6338 14.4719C67.8432 15.1363 67.9297 15.8332 67.8893 16.5286C67.8283 17.25 67.5712 17.9409 67.1458 18.5266C66.7638 19.0592 66.2606 19.4933 65.6778 19.7932C65.0949 20.093 64.4492 20.25 63.7937 20.2511ZM63.7937 20.0697C64.364 20.0261 64.9087 19.8146 65.3588 19.4617C65.809 19.1088 66.1445 18.6305 66.3231 18.0871C66.6706 17.0652 66.3512 16.1198 65.945 15.0928C65.5387 14.0657 64.9894 13.0182 64.4452 11.9758C63.901 10.9334 63.3109 9.85776 62.7053 8.8128L63.9598 8.75149C62.8101 10.8695 61.5403 12.9748 60.8121 15.1822C60.434 16.2706 60.3012 17.4356 60.8735 18.4653C61.1557 18.9841 61.5808 19.411 62.0985 19.6954C62.6161 19.9798 63.2045 20.1098 63.7937 20.0697Z" fill="#B37683"/>
<path d="M38.6403 20.7646C37.0358 23.0181 35.416 25.2587 33.6301 27.3614C33.2673 27.8009 32.161 27.6169 31.4047 27.7242C31.3588 27.5735 31.3281 27.4381 31.2847 27.2848C32.4957 25.6675 33.7042 24.0477 34.9152 22.4432C36.0521 20.946 37.2913 19.5255 38.2902 17.9363C39.9407 15.3329 42.4241 14.2292 45.2524 13.639C46.0546 13.4729 46.8875 13.5036 47.6898 13.3069C48.1297 13.1784 48.5206 12.9202 48.8114 12.5659C51.3663 9.25306 53.899 5.91464 56.4097 2.55067C54.4245 -0.515219 57.378 -0.295498 58.5124 0.537403C60.3877 1.92983 62.4009 3.06421 63.1597 3.95587C64.1127 5.07493 63.8547 7.14951 61.2359 6.10456C58.7704 9.3263 55.9855 13.0181 53.6095 16.3012C53.3208 16.71 53.3054 17.4356 53.3974 17.9823C53.819 20.7186 54.0464 23.4882 52.6309 25.969C51.5426 27.8596 50.8757 28.6772 49.4526 30.3558C49.1512 30.7058 45.9269 32.2336 45.0786 32.2183C47.0612 29.4641 47.9401 27.7549 45.0352 25.7109C43.5201 24.6532 41.5682 23.156 40.071 22.037C42.0971 18.9507 43.9289 17.4381 48.6811 16.2552C43.9672 15.0621 40.7123 17.8444 38.6403 20.7646Z" fill="#B37683"/>
<path d="M49.2484 30.4786C47.8805 31.9517 46.0035 32.8495 43.9981 32.99C41.9748 33.0746 39.9649 32.6253 38.1704 31.687C36.4151 30.8567 34.9767 29.615 33.3876 28.8128C32.6006 28.4193 31.7831 28.1025 30.9502 28.1331C30.0765 28.196 29.2548 28.5715 28.6354 29.1909C28.6092 29.2166 28.5738 29.231 28.5371 29.231C28.5003 29.231 28.465 29.2166 28.4387 29.1909C28.418 29.1689 28.4052 29.1406 28.4024 29.1105C28.3997 29.0804 28.407 29.0502 28.4234 29.0248C28.9682 28.1564 29.8326 27.537 30.8301 27.3002C31.8751 27.0729 32.9175 27.2696 33.873 27.543C35.6865 28.1229 37.4479 28.8545 39.1387 29.73C40.7585 30.4964 42.2863 31.3932 44.0134 31.6053C45.7227 31.8786 47.4932 31.2731 49.067 30.2895C49.0994 30.2702 49.138 30.2642 49.1747 30.2728C49.2114 30.2814 49.2433 30.3039 49.2638 30.3355C49.2779 30.3575 49.284 30.3837 49.2813 30.4097C49.2785 30.4357 49.2669 30.46 49.2484 30.4786Z" fill="#B37683"/>
<path d="M7.78226 5.37916C4.75469 5.45581 3.63564 7.19315 3.63564 8.79763C3.62871 9.53217 3.873 10.247 4.32802 10.8237C3.85695 11.0357 3.34737 11.1487 2.83084 11.1558C1.0424 11.1558 0 9.59732 0 7.83443C0 5.63976 1.67858 3.13084 5.78176 3.13084C8.67137 3.13084 11.6376 4.66378 13.1374 3.82577C13.2908 3.92085 13.4163 4.05486 13.5011 4.21417C13.5859 4.37348 13.627 4.55241 13.6202 4.73277C13.6202 5.3996 13.1961 6.09453 12.3964 6.09453H12.2431L12.4986 24.6738L18.3749 6.06388C18.8297 4.70211 19.844 4.18857 20.9298 4.18857C21.4894 4.18857 22.2073 4.32399 22.565 4.5667L23.8194 25.6575L26.3616 19.3188C28.104 14.9601 30.2374 7.77312 27.7259 3.7057C28.2854 3.14362 29.4045 2.79614 30.3728 2.79614C32.0846 2.79614 32.7795 3.91519 32.7795 5.65509C32.7795 9.55899 29.8899 16.5339 27.9661 20.9513L24.6447 28.5471C23.9778 30.149 22.9635 30.7699 21.6784 30.7699C21.0114 30.7721 20.3531 30.6172 19.7571 30.3176L18.5614 11.9964L13.2881 28.5573C12.6213 30.1592 11.607 30.7801 10.3218 30.7801C9.65478 30.7823 8.99657 30.6274 8.40055 30.3279L7.78226 5.37916Z" fill="#B37683"/>
</svg>
