<svg width="0" height="0" class="hidden">
  <symbol xmlns="http://www.w3.org/2000/svg" viewBox="0 0 24 14" id="ic_arrow_hor">
    <path d="M23.5 7H1M1 7L7 1M1 7L7 13" stroke="currentColor"></path>
  </symbol>
  <symbol xmlns="http://www.w3.org/2000/svg" viewBox="0 0 27 27" id="ic_cart">
    <path d="M2.68262 3.7644L3.81774 3.99143C4.75019 4.17792 5.45156 4.95141 5.54618 5.89761L5.71146 7.55046L6.78086 16.4621C6.91134 17.5494 7.83376 18.3678 8.92891 18.3678H18.6568C20.3941 18.3678 21.9085 17.1854 22.3299 15.5L23.5444 10.6419C23.937 9.07158 22.7493 7.55046 21.1307 7.55046H15.0143H9.71387" stroke="currentColor" stroke-linecap="round" fill="none"></path>
    <path d="M14.5818 15.1226H10.2549" stroke="currentColor" stroke-linecap="round" stroke-linejoin="round" fill="none"></path>
    <circle cx="9.7139" cy="22.1538" r="1.6226" fill="currentColor"></circle>
    <circle cx="19.4493" cy="22.1538" r="1.6226" fill="currentColor"></circle>
  </symbol>
  <symbol xmlns="http://www.w3.org/2000/svg" viewBox="0 0 12 9" id="ic_check">
    <path d="M1 3.5L5 7.5L11.5 1" stroke="currentColor" fill="none"></path>
  </symbol>
  <symbol xmlns="http://www.w3.org/2000/svg" viewBox="0 0 16 16" id="ic_close">
    <path d="M15 1L8 8M1 15L8 8M8 8L1 1L15 15" stroke="currentColor" fill="none"></path>
  </symbol>
  <symbol xmlns="http://www.w3.org/2000/svg" viewBox="0 0 20 25" id="ic_copy">
    <path d="M6.02344 8.23794C6.02344 6.51534 7.41988 5.1189 9.14249 5.1189H16.3806C18.1032 5.1189 19.4996 6.51534 19.4996 8.23794V20.9046C19.4996 22.6272 18.1032 24.0237 16.3806 24.0237H9.14248C7.41988 24.0237 6.02344 22.6272 6.02344 20.9046V8.23794Z" stroke="currentColor" fill="none"></path>
    <path d="M13.6667 3.71429V3.71429C13.6667 2.21523 12.4514 1 10.9524 1H4.61905C2.6203 1 1 2.6203 1 4.61904V17.2857C1 19.2845 2.6203 20.9048 4.61905 20.9048V20.9048" stroke="currentColor" fill="none"></path>
    <path d="M11.9361 15.2578V15.2578C11.1981 14.8142 10.9594 13.8562 11.403 13.1182L12.4741 11.3364C12.9177 10.5983 13.8757 10.3596 14.6137 10.8033V10.8033C15.3518 11.2469 15.5904 12.2049 15.1468 12.9429V12.9429" stroke="currentColor" stroke-linecap="round" fill="none"></path>
    <path d="M13.0131 13.4746V13.4746C13.7512 13.9182 13.9898 14.8762 13.5462 15.6142L12.4752 17.3961C12.0315 18.1341 11.0736 18.3728 10.3355 17.9291V17.9291C9.59746 17.4855 9.3588 16.5276 9.80243 15.7895V15.7895" stroke="currentColor" stroke-linecap="round" fill="none"></path>
  </symbol>
  <symbol xmlns="http://www.w3.org/2000/svg" viewBox="0 0 24 24" id="ic_eye">
    <path d="M3.20057 12.7844C2.93314 12.2954 2.93314 11.7045 3.20058 11.2154C4.9 8.10803 8.20336 6 12 6C15.7966 6 19.1 8.10809 20.7994 11.2156C21.0669 11.7046 21.0669 12.2956 20.7994 12.7846C19.1 15.892 15.7966 18 12 18C8.20336 18 4.89997 15.8919 3.20057 12.7844Z" stroke="currentColor" stroke-width="1.5" fill="none"></path>
    <path d="M9 12C9 13.6569 10.3431 15 12 15C13.6569 15 15 13.6569 15 12C15 10.3431 13.6569 9 12 9" stroke="currentColor" stroke-width="1.5" stroke-linecap="round" fill="none"></path>
  </symbol>
  <symbol xmlns="http://www.w3.org/2000/svg" viewBox="0 0 24 24" id="ic_eye2">
    <path d="M20.7994 11.2156L21.4575 10.8557L20.7994 11.2156ZM20.7994 12.7846L21.4574 13.1444L20.7994 12.7846ZM3.20058 11.2154L3.8586 11.5753L3.20058 11.2154ZM3.20057 12.7844L2.54254 13.1443H2.54254L3.20057 12.7844ZM19.5236 8.30907C19.227 8.0199 18.7522 8.0259 18.463 8.32247C18.1738 8.61904 18.1798 9.09387 18.4764 9.38304L19.5236 8.30907ZM9.68628 16.9596C9.28505 16.8567 8.87638 17.0986 8.7735 17.4998C8.67062 17.9011 8.91249 18.3097 9.31372 18.4126L9.68628 16.9596ZM14.604 6.34114L14.4099 7.06559L14.604 6.34114ZM7.07264 16.7089L6.70374 17.3619L7.50475 16.0959L7.07264 16.7089ZM3.8586 11.5753C5.43153 8.69919 8.4879 6.75 12 6.75V5.25C7.91882 5.25 4.36847 7.51686 2.54256 10.8556L3.8586 11.5753ZM20.1414 12.4247C18.5685 15.3008 15.5121 17.25 12 17.25V18.75C16.0812 18.75 19.6315 16.4831 21.4574 13.1444L20.1414 12.4247ZM20.1414 11.5754C20.2862 11.8402 20.2862 12.1599 20.1414 12.4247L21.4574 13.1444C21.8475 12.4312 21.8475 11.569 21.4575 10.8557L20.1414 11.5754ZM2.54256 10.8556C2.15249 11.5688 2.15248 12.431 2.54254 13.1443L3.8586 12.4246C3.7138 12.1598 3.7138 11.8401 3.8586 11.5753L2.54256 10.8556ZM18.4764 9.38304C19.1347 10.0249 19.6974 10.7635 20.1414 11.5754L21.4575 10.8557C20.9413 9.91179 20.2876 9.05403 19.5236 8.30907L18.4764 9.38304ZM12 17.25C11.2002 17.25 10.4251 17.1491 9.68628 16.9596L9.31372 18.4126C10.1732 18.633 11.0735 18.75 12 18.75V17.25ZM12 6.75C12.8346 6.75 13.6423 6.85991 14.4099 7.06559L14.7981 5.6167C13.905 5.37739 12.9668 5.25 12 5.25V6.75ZM5.92995 14.9904C5.09529 14.2678 4.39151 13.399 3.8586 12.4246L2.54254 13.1443C3.16202 14.2771 3.97944 15.2858 4.94816 16.1244L5.92995 14.9904ZM7.44154 16.0559C6.90181 15.751 6.3956 15.3935 5.92995 14.9904L4.94816 16.1244C5.48873 16.5924 6.07659 17.0076 6.70374 17.3619L7.44154 16.0559ZM5.00695 16.1704L6.64054 17.3219L7.50475 16.0959L5.87116 14.9444L5.00695 16.1704ZM14.4099 7.06559C15.1269 7.2577 15.8096 7.53359 16.4471 7.88219L17.1668 6.56615C16.426 6.161 15.6321 5.84016 14.7981 5.6167L14.4099 7.06559Z" fill="currentColor"></path>
    <path d="M19.4648 4.46436L4.46484 19.4644" stroke="currentColor" stroke-width="1.5" stroke-linecap="round" stroke-linejoin="round" fill="none"></path>
    <path d="M9 12C9 10.3431 10.3431 9 12 9" stroke="currentColor" stroke-width="1.5" stroke-linecap="round" fill="none"></path>
  </symbol>
  <symbol xmlns="http://www.w3.org/2000/svg" viewBox="0 0 21 20" id="ic_favorite">
    <path d="M18.8373 2.75235C21.0543 5.08882 21.0542 8.87699 18.8372 11.2135L12.6762 17.7065C11.4932 18.9532 9.50675 18.9532 8.32377 17.7065L2.16275 11.2135C-0.0542492 8.87699 -0.0542505 5.08883 2.16275 2.75235C4.37975 0.415882 7.97421 0.415883 10.1912 2.75235V2.75235C10.3591 2.92925 10.6409 2.92925 10.8088 2.75235V2.75235C11.2448 2.29289 11.734 1.92379 12.2555 1.64503C12.8763 1.31327 13.5427 1.10949 14.2197 1.03368C14.6207 0.988774 15.0254 0.988774 15.4263 1.03368" stroke="currentColor" stroke-linecap="round" fill="none"></path>
  </symbol>
  <symbol xmlns="http://www.w3.org/2000/svg" viewBox="0 0 24 24" id="ic_instagram">
    <path d="M12.0002 8.75005C10.2053 8.75005 8.75018 10.2051 8.75018 12C8.75018 13.795 10.2053 15.25 12.0002 15.25C13.7951 15.25 15.2502 13.795 15.2502 12C15.2502 10.2051 13.7951 8.75005 12.0002 8.75005Z" fill="currentColor"></path>
    <path fill-rule="evenodd" clip-rule="evenodd" d="M6.76972 3.08151C10.2178 2.69614 13.7825 2.69614 17.2307 3.08151C19.1291 3.29369 20.6603 4.78947 20.8831 6.69452C21.2954 10.2195 21.2954 13.7806 20.8831 17.3056C20.6603 19.2106 19.1291 20.7064 17.2307 20.9186C13.7825 21.304 10.2178 21.304 6.76972 20.9186C4.87132 20.7064 3.34013 19.2106 3.11732 17.3056C2.70504 13.7806 2.70504 10.2195 3.11732 6.69452C3.34013 4.78947 4.87132 3.29369 6.76972 3.08151ZM17.0002 6.00005C16.4479 6.00005 16.0002 6.44776 16.0002 7.00005C16.0002 7.55233 16.4479 8.00005 17.0002 8.00005C17.5525 8.00005 18.0002 7.55233 18.0002 7.00005C18.0002 6.44776 17.5525 6.00005 17.0002 6.00005ZM7.25018 12C7.25018 9.37669 9.37683 7.25005 12.0002 7.25005C14.6235 7.25005 16.7502 9.37669 16.7502 12C16.7502 14.6234 14.6235 16.75 12.0002 16.75C9.37683 16.75 7.25018 14.6234 7.25018 12Z" fill="currentColor"></path>
  </symbol>
  <symbol xmlns="http://www.w3.org/2000/svg" viewBox="0 0 25 25" id="ic_instagram2">
    <path d="M12.4973 2.62114C15.7165 2.62114 16.0962 2.63225 17.3687 2.69152C18.1327 2.70096 18.8895 2.84129 19.6061 3.10642C20.1259 3.30615 20.5979 3.6128 20.9916 4.00653C21.3854 4.40026 21.692 4.87229 21.8918 5.39205C22.1569 6.10869 22.2972 6.86548 22.3067 7.62953C22.3659 8.90201 22.377 9.28171 22.377 12.499C22.377 15.7163 22.3659 16.0979 22.3067 17.3703C22.2972 18.1344 22.1569 18.8912 21.8918 19.6078C21.692 20.1276 21.3854 20.5996 20.9916 20.9933C20.5979 21.3871 20.1259 21.6937 19.6061 21.8935C18.8895 22.1586 18.1327 22.2989 17.3687 22.3084C16.098 22.3676 15.7165 22.3787 12.4973 22.3787C9.27816 22.3787 8.89845 22.3676 7.62783 22.3084C6.86378 22.2989 6.107 22.1586 5.39036 21.8935C4.8706 21.6937 4.39857 21.3871 4.00484 20.9933C3.61111 20.5996 3.30446 20.1276 3.10473 19.6078C2.8396 18.8912 2.69928 18.1344 2.68984 17.3703C2.63057 16.0979 2.61945 15.7182 2.61945 12.499C2.61945 9.27986 2.63057 8.90201 2.68984 7.62953C2.69928 6.86548 2.8396 6.10869 3.10473 5.39205C3.30446 4.87229 3.61111 4.40026 4.00484 4.00653C4.39857 3.6128 4.8706 3.30615 5.39036 3.10642C6.107 2.84129 6.86378 2.70096 7.62783 2.69152C8.9003 2.63225 9.28002 2.62114 12.4973 2.62114ZM12.4973 0.448486C9.2263 0.448486 8.81512 0.463304 7.52968 0.522575C6.53035 0.540644 5.54135 0.728545 4.60502 1.07824C3.80557 1.3872 3.07953 1.85986 2.47348 2.46591C1.86744 3.07196 1.39477 3.798 1.08581 4.59745C0.736118 5.53378 0.548217 6.52277 0.530148 7.5221C0.470877 8.80754 0.456055 9.21873 0.456055 12.4897C0.456055 15.7608 0.470877 16.1738 0.530148 17.4592C0.548217 18.4586 0.736118 19.4476 1.08581 20.3839C1.39477 21.1834 1.86744 21.9094 2.47348 22.5154C3.07953 23.1215 3.80557 23.5942 4.60502 23.9031C5.54135 24.2528 6.53035 24.4407 7.52968 24.4588C8.81512 24.518 9.2263 24.5329 12.4973 24.5329C15.7683 24.5329 16.1814 24.518 17.4668 24.4588C18.4661 24.4407 19.4551 24.2528 20.3915 23.9031C21.1909 23.5942 21.917 23.1215 22.523 22.5154C23.1291 21.9094 23.6017 21.1834 23.9107 20.3839C24.2604 19.4476 24.4483 18.4586 24.4663 17.4592C24.5256 16.1738 24.5404 15.7626 24.5404 12.4897C24.5404 9.21688 24.5256 8.80754 24.4663 7.5221C24.4483 6.52277 24.2604 5.53378 23.9107 4.59745C23.6017 3.798 23.1291 3.07196 22.523 2.46591C21.917 1.85986 21.1909 1.3872 20.3915 1.07824C19.4551 0.728545 18.4661 0.540644 17.4668 0.522575C16.1814 0.463304 15.7702 0.448486 12.4973 0.448486Z" fill="currentColor"></path>
    <path d="M12.4978 6.31274C11.2738 6.31274 10.0773 6.67573 9.05963 7.35578C8.04194 8.03584 7.24877 9.00242 6.78045 10.1333C6.31213 11.2641 6.18969 12.5085 6.42861 13.709C6.66754 14.9094 7.25711 16.012 8.12274 16.8774C8.98837 17.7428 10.0912 18.332 11.2917 18.5706C12.4922 18.8091 13.7365 18.6863 14.8673 18.2177C15.998 17.749 16.9643 16.9556 17.6441 15.9377C18.3238 14.9198 18.6865 13.7231 18.6861 12.4991C18.6861 11.6866 18.526 10.882 18.215 10.1313C17.904 9.3806 17.4481 8.69853 16.8735 8.12405C16.2988 7.54956 15.6166 7.09391 14.8658 6.78312C14.1151 6.47234 13.3104 6.3125 12.4978 6.31274ZM12.4978 16.5166C11.7033 16.5166 10.9265 16.281 10.2659 15.8395C9.60519 15.3981 9.09026 14.7707 8.78619 14.0366C8.48212 13.3025 8.40256 12.4947 8.55758 11.7154C8.71259 10.9361 9.09521 10.2202 9.65706 9.65838C10.2189 9.09652 10.9348 8.7139 11.7141 8.55888C12.4934 8.40387 13.3012 8.48343 14.0353 8.7875C14.7693 9.09157 15.3968 9.6065 15.8382 10.2672C16.2797 10.9278 16.5153 11.7046 16.5153 12.4991C16.5153 13.5646 16.092 14.5865 15.3386 15.3399C14.5852 16.0933 13.5633 16.5166 12.4978 16.5166Z" fill="currentColor"></path>
    <path d="M18.9309 7.51474C19.7299 7.51474 20.3775 6.86709 20.3775 6.06816C20.3775 5.26924 19.7299 4.62158 18.9309 4.62158C18.132 4.62158 17.4844 5.26924 17.4844 6.06816C17.4844 6.86709 18.132 7.51474 18.9309 7.51474Z" fill="currentColor"></path>
  </symbol>
  <symbol xmlns="http://www.w3.org/2000/svg" viewBox="0 0 24 15" id="ic_menu">
    <line x1="3" y1="1" x2="23" y2="1" stroke="currentColor" stroke-width="2" stroke-linecap="round" fill="none"></line>
    <line x1="1" y1="7.5" x2="13" y2="7.5" stroke="currentColor" stroke-width="2" stroke-linecap="round" fill="none"></line>
    <line x1="3" y1="14" x2="23" y2="14" stroke="currentColor" stroke-width="2" stroke-linecap="round" fill="none"></line>
  </symbol>
  <symbol xmlns="http://www.w3.org/2000/svg" viewBox="0 0 25 25" id="ic_search">
    <path d="M19.2977 14.0701C19.9424 12.152 19.8649 10.0644 19.0796 8.19934C18.2943 6.33428 16.8553 4.81998 15.0327 3.94069C13.21 3.06141 11.1292 2.87761 9.18062 3.42381C7.23209 3.97 5.54991 5.20863 4.44988 6.90716C3.34984 8.6057 2.90759 10.6473 3.20615 12.6488C3.5047 14.6503 4.52353 16.474 6.07138 17.7776C7.61923 19.0812 9.58965 19.7749 11.6128 19.7287C13.6359 19.6825 15.5725 18.8994 17.0592 17.5265" stroke="currentColor" stroke-width="0.7" stroke-linecap="round" stroke-linejoin="round" fill="none"></path>
    <path d="M17.1343 17.6103L22.3266 22.8027" stroke="currentColor" stroke-width="0.7" stroke-linecap="round" stroke-linejoin="round" fill="none"></path>
  </symbol>
  <symbol xmlns="http://www.w3.org/2000/svg" viewBox="0 0 12 11" id="ic_star">
    <path d="M6 0L7.81978 3.49528L11.7063 4.1459L8.94447 6.95672L9.52671 10.8541L6 9.096L2.47329 10.8541L3.05553 6.95672L0.293661 4.1459L4.18022 3.49528L6 0Z" fill="currentColor"></path>
  </symbol>
  <symbol xmlns="http://www.w3.org/2000/svg" viewBox="0 0 24 24" id="ic_telegram">
    <path fill-rule="evenodd" clip-rule="evenodd" d="M18.4833 19.79L18.484 19.7883L18.5014 19.7448L21.5002 4.62568V4.57657C21.5002 4.19987 21.361 3.87101 21.0581 3.67375C20.793 3.50109 20.4882 3.48879 20.2745 3.50501C20.0485 3.52217 19.8354 3.57858 19.6879 3.62554C19.612 3.6497 19.5484 3.67298 19.503 3.69059C19.4802 3.69943 19.4617 3.70692 19.4483 3.71251L19.4351 3.71807L2.71526 10.277L2.71066 10.2787C2.70163 10.2819 2.68969 10.2864 2.67526 10.292C2.64651 10.3032 2.60737 10.3192 2.56139 10.3401C2.47111 10.381 2.34637 10.4441 2.21987 10.5307C2.00502 10.6779 1.5959 11.0262 1.66499 11.5784C1.72221 12.0358 2.03751 12.3263 2.25008 12.4767C2.36403 12.5574 2.47304 12.6155 2.55287 12.6535C2.59332 12.6728 2.62767 12.6875 2.65326 12.6979C2.66609 12.7032 2.67682 12.7073 2.68512 12.7105L2.69574 12.7144L2.70253 12.717L5.62777 13.7018C5.6179 13.8853 5.6361 14.0724 5.68478 14.2571L7.15006 19.8155C7.3238 20.4745 7.92002 20.9336 8.60159 20.9331C9.21252 20.9327 9.75435 20.5631 9.98454 20.0117L12.2722 17.5656L16.2012 20.5778L16.2571 20.6022C16.614 20.758 16.9475 20.8073 17.2525 20.7657C17.557 20.7241 17.7989 20.5964 17.9807 20.451C18.1595 20.3079 18.2821 20.1464 18.3592 20.0248C18.3984 19.963 18.4276 19.9087 18.4478 19.8679C18.458 19.8473 18.466 19.83 18.472 19.8164L18.4796 19.799L18.4822 19.7926L18.4833 19.79ZM7.13518 13.8747C7.10187 13.7484 7.15416 13.615 7.26444 13.545L17.1865 7.24407C17.1865 7.24407 17.77 6.88978 17.7492 7.24407C17.7492 7.24407 17.8533 7.30664 17.5406 7.59837C17.244 7.87544 10.4689 14.4165 9.7834 15.0784C9.74383 15.1166 9.72021 15.1604 9.70627 15.2136L8.60046 19.4331L7.13518 13.8747Z" fill="currentColor"></path>
  </symbol>
  <symbol xmlns="http://www.w3.org/2000/svg" viewBox="0 0 27 27" id="ic_user">
    <path d="M9 7.875C9 10.3603 11.0147 12.375 13.5 12.375C15.9853 12.375 18 10.3603 18 7.875C18 5.38972 15.9853 3.375 13.5 3.375" stroke="currentColor" stroke-linecap="round" fill="none"></path>
    <path d="M5.625 19.0515C5.625 18.0836 6.23346 17.2202 7.14498 16.8947V16.8947C11.2545 15.4269 15.7455 15.4269 19.855 16.8947V16.8947C20.7665 17.2202 21.375 18.0836 21.375 19.0515V20.5315C21.375 21.8673 20.1918 22.8935 18.8694 22.7046L17.7957 22.5512C14.9464 22.1441 12.0536 22.1441 9.20433 22.5512L8.13061 22.7046C6.80817 22.8935 5.625 21.8673 5.625 20.5315V19.0515Z" stroke="currentColor" fill="none"></path>
  </symbol>
  <symbol xmlns="http://www.w3.org/2000/svg" viewBox="0 0 24 24" id="ic_vk">
    <path d="M21.5035 18.381H19.222C18.3588 18.381 18.0992 17.682 16.5511 16.1339C15.2 14.8313 14.6292 14.6686 14.2868 14.6686C13.8145 14.6686 13.6847 14.7984 13.6847 15.4505V17.5021C13.6847 18.0573 13.5049 18.3825 12.0553 18.3825C10.6485 18.288 9.28422 17.8606 8.07493 17.1355C6.86564 16.4104 5.84592 15.4084 5.09975 14.212C3.32828 12.0071 2.0957 9.41934 1.5 6.65442C1.5 6.31196 1.62979 6.00234 2.28187 6.00234H4.56182C5.14822 6.00234 5.35933 6.26349 5.5892 6.86553C6.69633 10.1244 8.58534 12.9579 9.35158 12.9579C9.64556 12.9579 9.77379 12.8281 9.77379 12.0947V8.7389C9.67684 7.20799 8.86369 7.0782 8.86369 6.52463C8.87413 6.37862 8.94104 6.24243 9.05022 6.14492C9.1594 6.04742 9.30227 5.99628 9.44853 6.00234H13.0326C13.5221 6.00234 13.6847 6.24629 13.6847 6.83269V11.3613C13.6847 11.8508 13.8958 12.0134 14.0428 12.0134C14.3368 12.0134 14.5635 11.8508 15.1015 11.3128C16.2569 9.90381 17.2009 8.33401 17.9037 6.65286C17.9756 6.45092 18.1115 6.27804 18.2908 6.16058C18.4701 6.04313 18.6829 5.98755 18.8967 6.00234H21.1782C21.8616 6.00234 22.007 6.3448 21.8616 6.83269C21.032 8.6911 20.0055 10.4552 18.7997 12.0947C18.5542 12.47 18.4557 12.6655 18.7997 13.1049C19.0265 13.4473 19.8256 14.1151 20.3635 14.7499C21.1452 15.5297 21.7944 16.4319 22.2853 17.4208C22.4808 18.0557 22.154 18.381 21.5035 18.381Z" fill="currentColor"></path>
  </symbol>
  <symbol xmlns="http://www.w3.org/2000/svg" viewBox="0 0 25 25" id="ic_whatsapp">
    <path fill-rule="evenodd" clip-rule="evenodd" d="M12.8252 0.465332C10.7496 0.466253 8.71142 1.01826 6.91901 2.06495C5.1266 3.11164 3.64424 4.61547 2.62343 6.42275C1.60263 8.23002 1.07998 10.2759 1.10891 12.3514C1.13784 14.4268 1.7173 16.4574 2.78809 18.2355L0.672852 24.533L7.15561 22.4567C8.72124 23.3209 10.4639 23.8154 12.2501 23.9024C14.0363 23.9893 15.8187 23.6664 17.4609 22.9583C19.1031 22.2501 20.5614 21.1756 21.7243 19.817C22.8872 18.4584 23.7238 16.8517 24.17 15.12C24.6162 13.3882 24.6602 11.5773 24.2987 9.8259C23.9372 8.0745 23.1796 6.42903 22.0842 5.01552C20.9887 3.602 19.5843 2.45791 17.9784 1.67083C16.3726 0.883753 14.608 0.474551 12.8197 0.47458L12.8252 0.465332ZM12.8252 21.9399C10.9151 21.9437 9.04644 21.3831 7.45381 20.3285L3.70493 21.5269L4.92184 17.9058C3.63744 16.1316 2.98758 13.9768 3.07692 11.7883C3.16626 9.59982 3.9896 7.50514 5.41434 5.84155C6.83908 4.17797 8.78228 3.04234 10.931 2.61756C13.0797 2.19279 15.3088 2.50359 17.2594 3.49992C19.21 4.49625 20.7684 6.1201 21.6838 8.10995C22.5991 10.0998 22.8181 12.3398 22.3054 14.4693C21.7927 16.5987 20.5782 18.4936 18.8575 19.8488C17.1367 21.204 15.01 21.9406 12.8197 21.9399H12.8252ZM18.3208 14.8478C18.0263 14.6867 16.5834 13.9087 16.313 13.7976C16.0425 13.6865 15.8444 13.6309 15.6351 13.9235C15.4258 14.2162 14.8256 14.8663 14.6441 15.0589C14.4626 15.2516 14.2866 15.2701 13.9921 15.1089C13.1227 14.7255 12.3272 14.1926 11.6417 13.5346C11.0101 12.906 10.4757 12.1869 10.0562 11.4008C9.89133 11.0952 10.0562 10.9396 10.2099 10.797C10.3636 10.6544 10.5229 10.458 10.6785 10.2895C10.8075 10.1429 10.9142 9.97814 10.9953 9.80051C11.0384 9.71988 11.0609 9.62985 11.0609 9.53841C11.0609 9.44697 11.0384 9.35694 10.9953 9.27632C10.9249 9.12443 10.3822 7.62971 10.1543 7.02218C9.92653 6.41466 9.67648 6.50355 9.50052 6.49614C9.32456 6.48873 9.13007 6.4591 8.92818 6.45169C8.77657 6.44929 8.62612 6.47851 8.48643 6.53751C8.34675 6.59651 8.2209 6.68398 8.11691 6.79434C7.76665 7.10208 7.4843 7.47941 7.28787 7.90226C7.09143 8.32511 6.9852 8.78422 6.97594 9.25038C6.92223 10.7322 7.9391 12.1843 8.08727 12.3992C8.23545 12.614 10.0321 15.7943 13.0271 17.1075C16.0222 18.4207 16.0407 18.0188 16.5889 17.9892C17.1372 17.9595 18.3875 17.3316 18.6616 16.6426C18.9357 15.9536 18.9598 15.346 18.8894 15.2275C18.819 15.1089 18.6134 15.0089 18.3208 14.8478Z" fill="currentColor"></path>
  </symbol>
</svg>